<svg xmlns="http://www.w3.org/2000/svg" viewBox="0 0 128 128" shape-rendering="geometricPrecision">
<rect x="11" y="23" width="4" height="7" fill="#2c3e50"/><rect x="17" y="23" width="4" height="7" fill="#2c3e50"/><rect x="9" y="14" width="14" height="12" rx="3" fill="#3a7ac9" stroke="#1a1a1a" stroke-width="1"/><circle cx="16" cy="9" r="7" fill="#e0b088" stroke="#1a1a1a" stroke-width="1"/><circle cx="13" cy="9" r="1.1" fill="#1a1a1a"/><circle cx="19" cy="9" r="1.1" fill="#1a1a1a"/>
<rect x="40" y="23" width="4" height="7" fill="#2c3e50"/><rect x="50" y="23" width="4" height="7" fill="#2c3e50"/><rect x="41" y="14" width="14" height="12" rx="3" fill="#3a7ac9" stroke="#1a1a1a" stroke-width="1"/><circle cx="48" cy="9" r="7" fill="#e0b088" stroke="#1a1a1a" stroke-width="1"/><circle cx="45" cy="9" r="1.1" fill="#1a1a1a"/><circle cx="51" cy="9" r="1.1" fill="#1a1a1a"/>
<rect x="75" y="23" width="4" height="7" fill="#2c3e50"/><rect x="81" y="23" width="4" height="7" fill="#2c3e50"/><rect x="73" y="14" width="14" height="12" rx="3" fill="#3a7ac9" stroke="#1a1a1a" stroke-width="1"/><circle cx="80" cy="9" r="7" fill="#e0b088" stroke="#1a1a1a" stroke-width="1"/><circle cx="77" cy="9" r="1.1" fill="#1a1a1a"/><circle cx="83" cy="9" r="1.1" fill="#1a1a1a"/>
<rect x="108" y="23" width="4" height="7" fill="#2c3e50"/><rect x="110" y="23" width="4" height="7" fill="#2c3e50"/><rect x="105" y="14" width="14" height="12" rx="3" fill="#3a7ac9" stroke="#1a1a1a" stroke-width="1"/><circle cx="112" cy="9" r="7" fill="#e0b088" stroke="#1a1a1a" stroke-width="1"/><circle cx="109" cy="9" r="1.1" fill="#1a1a1a"/><circle cx="115" cy="9" r="1.1" fill="#1a1a1a"/>
<rect x="11" y="55" width="4" height="7" fill="#2c3e50"/><rect x="17" y="55" width="4" height="7" fill="#2c3e50"/><rect x="9" y="46" width="14" height="12" rx="3" fill="#3a7ac9" stroke="#1a1a1a" stroke-width="1"/><circle cx="16" cy="41" r="7" fill="#e0b088" stroke="#1a1a1a" stroke-width="1"/><circle cx="12" cy="41" r="1.1" fill="#1a1a1a"/>
<rect x="40" y="55" width="4" height="7" fill="#2c3e50"/><rect x="50" y="55" width="4" height="7" fill="#2c3e50"/><rect x="41" y="46" width="14" height="12" rx="3" fill="#3a7ac9" stroke="#1a1a1a" stroke-width="1"/><circle cx="48" cy="41" r="7" fill="#e0b088" stroke="#1a1a1a" stroke-width="1"/><circle cx="44" cy="41" r="1.1" fill="#1a1a1a"/>
<rect x="75" y="55" width="4" height="7" fill="#2c3e50"/><rect x="81" y="55" width="4" height="7" fill="#2c3e50"/><rect x="73" y="46" width="14" height="12" rx="3" fill="#3a7ac9" stroke="#1a1a1a" stroke-width="1"/><circle cx="80" cy="41" r="7" fill="#e0b088" stroke="#1a1a1a" stroke-width="1"/><circle cx="76" cy="41" r="1.1" fill="#1a1a1a"/>
<rect x="108" y="55" width="4" height="7" fill="#2c3e50"/><rect x="110" y="55" width="4" height="7" fill="#2c3e50"/><rect x="105" y="46" width="14" height="12" rx="3" fill="#3a7ac9" stroke="#1a1a1a" stroke-width="1"/><circle cx="112" cy="41" r="7" fill="#e0b088" stroke="#1a1a1a" stroke-width="1"/><circle cx="108" cy="41" r="1.1" fill="#1a1a1a"/>
<rect x="11" y="87" width="4" height="7" fill="#2c3e50"/><rect x="17" y="87" width="4" height="7" fill="#2c3e50"/><rect x="9" y="78" width="14" height="12" rx="3" fill="#3a7ac9" stroke="#1a1a1a" stroke-width="1"/><circle cx="16" cy="73" r="7" fill="#e0b088" stroke="#1a1a1a" stroke-width="1"/><circle cx="20" cy="73" r="1.1" fill="#1a1a1a"/>
<rect x="40" y="87" width="4" height="7" fill="#2c3e50"/><rect x="50" y="87" width="4" height="7" fill="#2c3e50"/><rect x="41" y="78" width="14" height="12" rx="3" fill="#3a7ac9" stroke="#1a1a1a" stroke-width="1"/><circle cx="48" cy="73" r="7" fill="#e0b088" stroke="#1a1a1a" stroke-width="1"/><circle cx="52" cy="73" r="1.1" fill="#1a1a1a"/>
<rect x="75" y="87" width="4" height="7" fill="#2c3e50"/><rect x="81" y="87" width="4" height="7" fill="#2c3e50"/><rect x="73" y="78" width="14" height="12" rx="3" fill="#3a7ac9" stroke="#1a1a1a" stroke-width="1"/><circle cx="80" cy="73" r="7" fill="#e0b088" stroke="#1a1a1a" stroke-width="1"/><circle cx="84" cy="73" r="1.1" fill="#1a1a1a"/>
<rect x="108" y="87" width="4" height="7" fill="#2c3e50"/><rect x="110" y="87" width="4" height="7" fill="#2c3e50"/><rect x="105" y="78" width="14" height="12" rx="3" fill="#3a7ac9" stroke="#1a1a1a" stroke-width="1"/><circle cx="112" cy="73" r="7" fill="#e0b088" stroke="#1a1a1a" stroke-width="1"/><circle cx="116" cy="73" r="1.1" fill="#1a1a1a"/>
<rect x="11" y="119" width="4" height="7" fill="#2c3e50"/><rect x="17" y="119" width="4" height="7" fill="#2c3e50"/><rect x="9" y="110" width="14" height="12" rx="3" fill="#3a7ac9" stroke="#1a1a1a" stroke-width="1"/><circle cx="16" cy="105" r="7" fill="#e0b088" stroke="#1a1a1a" stroke-width="1"/><circle cx="16" cy="101" r="1.3" fill="#1a1a1a"/>
<rect x="40" y="119" width="4" height="7" fill="#2c3e50"/><rect x="50" y="119" width="4" height="7" fill="#2c3e50"/><rect x="41" y="110" width="14" height="12" rx="3" fill="#3a7ac9" stroke="#1a1a1a" stroke-width="1"/><circle cx="48" cy="105" r="7" fill="#e0b088" stroke="#1a1a1a" stroke-width="1"/><circle cx="48" cy="101" r="1.3" fill="#1a1a1a"/>
<rect x="75" y="119" width="4" height="7" fill="#2c3e50"/><rect x="81" y="119" width="4" height="7" fill="#2c3e50"/><rect x="73" y="110" width="14" height="12" rx="3" fill="#3a7ac9" stroke="#1a1a1a" stroke-width="1"/><circle cx="80" cy="105" r="7" fill="#e0b088" stroke="#1a1a1a" stroke-width="1"/><circle cx="80" cy="101" r="1.3" fill="#1a1a1a"/>
<rect x="108" y="119" width="4" height="7" fill="#2c3e50"/><rect x="110" y="119" width="4" height="7" fill="#2c3e50"/><rect x="105" y="110" width="14" height="12" rx="3" fill="#3a7ac9" stroke="#1a1a1a" stroke-width="1"/><circle cx="112" cy="105" r="7" fill="#e0b088" stroke="#1a1a1a" stroke-width="1"/><circle cx="112" cy="101" r="1.3" fill="#1a1a1a"/>
</svg>
