<?xml version="1.0" encoding="UTF-8"?>
<svg version="1.1" xmlns="http://www.w3.org/2000/svg" width="100" height="97">
<path d="M0 0 C10.13537602 -0.04627451 20.27072704 -0.08184427 30.40618706 -0.10362434 C35.11213783 -0.11407597 39.81801651 -0.12826022 44.52392578 -0.15087891 C49.06264076 -0.17255826 53.60128624 -0.18455823 58.14004898 -0.18975449 C59.87446309 -0.19345909 61.60887326 -0.20069294 63.3432579 -0.21146011 C65.76652086 -0.22590995 68.18949409 -0.2279807 70.61279297 -0.22705078 C71.69604355 -0.23783661 71.69604355 -0.23783661 72.80117798 -0.24884033 C77.77189568 -0.22810432 77.77189568 -0.22810432 80 2 C80.19823697 4.4833575 80.27280817 6.85518327 80.25878906 9.33959961 C80.2622937 10.09585129 80.26579834 10.85210297 80.26940918 11.63127136 C80.27823236 14.13838809 80.27237478 16.64522401 80.265625 19.15234375 C80.26697162 20.89107823 80.26891213 22.62981234 80.27142334 24.36854553 C80.27437551 28.01615985 80.27007452 31.66367633 80.26074219 35.3112793 C80.24935604 39.99007183 80.25590119 44.66863471 80.26788712 49.34741879 C80.27511044 52.93931308 80.27281547 56.53115285 80.26763153 60.12304878 C80.2662959 61.84825225 80.26793972 63.57346065 80.27259064 65.29865837 C80.2776627 67.70957442 80.26993583 70.12011761 80.25878906 72.53100586 C80.26283752 73.24643555 80.26688599 73.96186523 80.27105713 74.69897461 C80.23965404 78.3603223 80.09009483 79.86485776 78 83 C77.01 83 76.02 83 75 83 C74.505 84.485 74.505 84.485 74 86 C73.34 85.67 72.68 85.34 72 85 C72 85.99 72 86.98 72 88 C71.34 88 70.68 88 70 88 C70 89.32 70 90.64 70 92 C69.01 92 68.02 92 67 92 C67 92.99 67 93.98 67 95 C65.68 95 64.36 95 63 95 C63 95.66 63 96.32 63 97 C36.27 97 9.54 97 -18 97 C-18 96.34 -18 95.68 -18 95 C-18.66 95 -19.32 95 -20 95 C-20 68.93 -20 42.86 -20 16 C-19.34 16 -18.68 16 -18 16 C-17.67 15.01 -17.34 14.02 -17 13 C-16.01 13.33 -15.02 13.66 -14 14 C-14 13.01 -14 12.02 -14 11 C-13.01 11 -12.02 11 -11 11 C-11 10.34 -11 9.68 -11 9 C-9.68 9 -8.36 9 -7 9 C-7 7.68 -7 6.36 -7 5 C-6.01 5 -5.02 5 -4 5 C-4 4.34 -4 3.68 -4 3 C-2.68 3 -1.36 3 0 3 C0 2.01 0 1.02 0 0 Z M10 12 C11 14 11 14 11 14 Z M22 12 C22 12.66 22 13.32 22 14 C22.66 14 23.32 14 24 14 C24 13.34 24 12.68 24 12 C23.34 12 22.68 12 22 12 Z M34 12 C34 12.66 34 13.32 34 14 C34.66 14 35.32 14 36 14 C36 13.34 36 12.68 36 12 C35.34 12 34.68 12 34 12 Z M47 12 C47 12.66 47 13.32 47 14 C47.66 14 48.32 14 49 14 C49 13.34 49 12.68 49 12 C48.34 12 47.68 12 47 12 Z M59 12 C59.66 12.66 60.32 13.32 61 14 C61 13.34 61 12.68 61 12 C60.34 12 59.68 12 59 12 Z M5 24 C5 30.93 5 37.86 5 45 C5.33 45 5.66 45 6 45 C6 38.07 6 31.14 6 24 C5.67 24 5.34 24 5 24 Z M17 24 C17 30.93 17 37.86 17 45 C17.33 45 17.66 45 18 45 C18 38.07 18 31.14 18 24 C17.67 24 17.34 24 17 24 Z M29 24 C29 30.93 29 37.86 29 45 C29.66 45 30.32 45 31 45 C31 38.07 31 31.14 31 24 C30.34 24 29.68 24 29 24 Z M42 24 C41.94210994 27.45826342 41.90644179 30.91640293 41.875 34.375 C41.85824219 35.35984375 41.84148438 36.3446875 41.82421875 37.359375 C41.81777344 38.30039062 41.81132813 39.24140625 41.8046875 40.2109375 C41.79421387 41.08024902 41.78374023 41.94956055 41.77294922 42.84521484 C41.79404891 45.21345939 41.79404891 45.21345939 44 47 C44 39.41 44 31.82 44 24 C43.34 24 42.68 24 42 24 Z M54 24 C54 38.19 54 52.38 54 67 C54.66 67 55.32 67 56 67 C56 52.81 56 38.62 56 24 C55.34 24 54.68 24 54 24 Z M17 54 C17 58.29 17 62.58 17 67 C17.33 67 17.66 67 18 67 C18 62.71 18 58.42 18 54 C17.67 54 17.34 54 17 54 Z M29 54 C29 58.29 29 62.58 29 67 C29.66 67 30.32 67 31 67 C31 62.71 31 58.42 31 54 C30.34 54 29.68 54 29 54 Z " fill="#909298" transform="translate(20,0)"/>
<path d="M0 0 C35 0 35 0 37 1 C42.445 1.495 42.445 1.495 48 2 C48 10.58 48 19.16 48 28 C44.37 28 40.74 28 37 28 C37 20.08 37 12.16 37 4 C36.34 4 35.68 4 35 4 C35 12.25 35 20.5 35 29 C29.39 29 23.78 29 18 29 C18 33.95 18 38.9 18 44 C18.99 44 19.98 44 21 44 C21 40.04 21 36.08 21 32 C31.56 32 42.12 32 53 32 C53 36.62 53 41.24 53 46 C52 47 52 47 49.4375 47.0625 C48.633125 47.041875 47.82875 47.02125 47 47 C47 47.99 47 48.98 47 50 C49.31 49.34 51.62 48.68 54 48 C54 48.66 54 49.32 54 50 C54.66 50 55.32 50 56 50 C56 49.01 56 48.02 56 47 C55.01 46.505 55.01 46.505 54 46 C54.66 46 55.32 46 56 46 C56 40.39 56 34.78 56 29 C56.66 29 57.32 29 58 29 C58 21.08 58 13.16 58 5 C57.34 5 56.68 5 56 5 C56 12.59 56 20.18 56 28 C54.02 28 52.04 28 50 28 C50.33 19.42 50.66 10.84 51 2 C53.97 2 56.94 2 60 2 C60 24.77 60 47.54 60 71 C40.2 71 20.4 71 0 71 C0 47.57 0 24.14 0 0 Z M19 5 C19 11.93 19 18.86 19 26 C19.33 26 19.66 26 20 26 C20 19.07 20 12.14 20 5 C19.67 5 19.34 5 19 5 Z M31 5 C31 11.93 31 18.86 31 26 C31.33 26 31.66 26 32 26 C32 19.07 32 12.14 32 5 C31.67 5 31.34 5 31 5 Z M43 5 C43 11.93 43 18.86 43 26 C43.66 26 44.32 26 45 26 C45 19.07 45 12.14 45 5 C44.34 5 43.68 5 43 5 Z M31 35 C31 39.29 31 43.58 31 48 C31.33 48 31.66 48 32 48 C32 43.71 32 39.42 32 35 C31.67 35 31.34 35 31 35 Z M43 35 C43 39.29 43 43.58 43 48 C43.66 48 44.32 48 45 48 C45 43.71 45 39.42 45 35 C44.34 35 43.68 35 43 35 Z " fill="#3E3F41" transform="translate(6,19)"/>
<path d="M0 0 C10.13537602 -0.04627451 20.27072704 -0.08184427 30.40618706 -0.10362434 C35.11213783 -0.11407597 39.81801651 -0.12826022 44.52392578 -0.15087891 C49.06264076 -0.17255826 53.60128624 -0.18455823 58.14004898 -0.18975449 C59.87446309 -0.19345909 61.60887326 -0.20069294 63.3432579 -0.21146011 C65.76652086 -0.22590995 68.18949409 -0.2279807 70.61279297 -0.22705078 C71.69604355 -0.23783661 71.69604355 -0.23783661 72.80117798 -0.24884033 C77.77189568 -0.22810432 77.77189568 -0.22810432 80 2 C80.19823697 4.4833575 80.27280817 6.85518327 80.25878906 9.33959961 C80.2622937 10.09585129 80.26579834 10.85210297 80.26940918 11.63127136 C80.27823236 14.13838809 80.27237478 16.64522401 80.265625 19.15234375 C80.26697162 20.89107823 80.26891213 22.62981234 80.27142334 24.36854553 C80.27437551 28.01615985 80.27007452 31.66367633 80.26074219 35.3112793 C80.24935604 39.99007183 80.25590119 44.66863471 80.26788712 49.34741879 C80.27511044 52.93931308 80.27281547 56.53115285 80.26763153 60.12304878 C80.2662959 61.84825225 80.26793972 63.57346065 80.27259064 65.29865837 C80.2776627 67.70957442 80.26993583 70.12011761 80.25878906 72.53100586 C80.26283752 73.24643555 80.26688599 73.96186523 80.27105713 74.69897461 C80.23965404 78.3603223 80.09009483 79.86485776 78 83 C77.01 83 76.02 83 75 83 C74.505 84.485 74.505 84.485 74 86 C73.34 85.67 72.68 85.34 72 85 C72 85.66 72 86.32 72 87 C71.01 87 70.02 87 69 87 C69 85.35 69 83.7 69 82 C69.99 82 70.98 82 72 82 C72 81.01 72 80.02 72 79 C73.65 79 75.3 79 77 79 C76.67 56.56 76.34 34.12 76 11 C75.67 30.47 75.34 49.94 75 70 C74.34 70 73.68 70 73 70 C73.2784375 70.928125 73.2784375 70.928125 73.5625 71.875 C74 74 74 74 73 76 C72.34 76 71.68 76 71 76 C71 56.2 71 36.4 71 16 C70.34 16 69.68 16 69 16 C69 37.45 69 58.9 69 81 C68.34 81 67.68 81 67 81 C67 58.89 67 36.78 67 14 C67.66 14 68.32 14 69 14 C69.33 13.01 69.66 12.02 70 11 C70.66 11 71.32 11 72 11 C72 10.01 72 9.02 72 8 C72.66 8 73.32 8 74 8 C74 7.01 74 6.02 74 5 C49.91 4.67 25.82 4.34 1 4 C1 4.66 1 5.32 1 6 C1.99 5.67 2.98 5.34 4 5 C6.19275019 4.91038047 8.38818658 4.88241809 10.58276367 4.88647461 C11.24644455 4.88632858 11.91012543 4.88618256 12.59391785 4.8860321 C14.78530152 4.88672818 16.97659995 4.8945063 19.16796875 4.90234375 C20.68825738 4.90420901 22.20854661 4.90563241 23.72883606 4.90663147 C27.72864443 4.91044812 31.72841644 4.92027115 35.72821045 4.93133545 C39.81033842 4.94156787 43.89247227 4.94613302 47.97460938 4.95117188 C55.98308959 4.96189417 63.99154027 4.97896039 72 5 C72 5.66 72 6.32 72 7 C71.34 7 70.68 7 70 7 C70 7.66 70 8.32 70 9 C69.01 9 68.02 9 67 9 C67 9.99 67 10.98 67 12 C66.01 12 65.02 12 64 12 C64 12.66 64 13.32 64 14 C63.34 14 62.68 14 62 14 C62 14.66 62 15.32 62 16 C59.03 16 56.06 16 53 16 C53 15.34 53 14.68 53 14 C53.99 14 54.98 14 56 14 C56 13.34 56 12.68 56 12 C56.66 12 57.32 12 58 12 C58 12.66 58 13.32 58 14 C58.99 14 59.98 14 61 14 C61 13.34 61 12.68 61 12 C60.34 12 59.68 12 59 12 C59 11.01 59 10.02 59 9 C59.99 9 60.98 9 62 9 C62 8.01 62 7.02 62 6 C60.68 6.33 59.36 6.66 58 7 C58 7.66 58 8.32 58 9 C57.01 9 56.02 9 55 9 C55 9.66 55 10.32 55 11 C53.6875 12.625 53.6875 12.625 52 14 C51.01 14 50.02 14 49 14 C49 14.66 49 15.32 49 16 C46.03 16 43.06 16 40 16 C40 15.34 40 14.68 40 14 C39.01 14 38.02 14 37 14 C37 14.66 37 15.32 37 16 C29.74 16 22.48 16 15 16 C15 15.34 15 14.68 15 14 C14.01 14 13.02 14 12 14 C12 14.66 12 15.32 12 16 C8.7 16 5.4 16 2 16 C2 15.34 2 14.68 2 14 C1.34 14 0.68 14 0 14 C0 14.66 0 15.32 0 16 C-5.61 16 -11.22 16 -17 16 C-17 41.74 -17 67.48 -17 94 C8.74 94 34.48 94 61 94 C61.33 69.91 61.66 45.82 62 21 C62.99 20.505 62.99 20.505 64 20 C64.17748277 28.22345634 64.34339942 36.44703187 64.49477577 44.6710062 C64.56543339 48.49020264 64.63999153 52.30923792 64.72363281 56.12817383 C64.80428652 59.81738351 64.87447332 63.50666066 64.93757248 67.19621086 C64.96338788 68.59999803 64.99289999 70.0037225 65.02626419 71.40735054 C65.07254145 73.38146634 65.10415809 75.35590898 65.13525391 77.33032227 C65.15746002 78.45173111 65.17966614 79.57313995 65.20254517 80.72853088 C64.9715883 84.45890014 64.14132796 87.45112026 63 91 C63.99 91 64.98 91 66 91 C66 90.01 66 89.02 66 88 C67.98 88.495 67.98 88.495 70 89 C70 89.99 70 90.98 70 92 C69.01 92 68.02 92 67 92 C67 92.99 67 93.98 67 95 C65.68 95 64.36 95 63 95 C63 95.66 63 96.32 63 97 C36.27 97 9.54 97 -18 97 C-18 96.34 -18 95.68 -18 95 C-18.66 95 -19.32 95 -20 95 C-20 68.93 -20 42.86 -20 16 C-19.34 16 -18.68 16 -18 16 C-17.67 15.01 -17.34 14.02 -17 13 C-16.01 13.33 -15.02 13.66 -14 14 C-14 13.01 -14 12.02 -14 11 C-13.01 11 -12.02 11 -11 11 C-11 10.34 -11 9.68 -11 9 C-9.68 9 -8.36 9 -7 9 C-7 7.68 -7 6.36 -7 5 C-6.01 5 -5.02 5 -4 5 C-4 4.34 -4 3.68 -4 3 C-2.68 3 -1.36 3 0 3 C0 2.01 0 1.02 0 0 Z M10 12 C11 14 11 14 11 14 Z M22 12 C22 12.66 22 13.32 22 14 C22.66 14 23.32 14 24 14 C24 13.34 24 12.68 24 12 C23.34 12 22.68 12 22 12 Z M34 12 C34 12.66 34 13.32 34 14 C34.66 14 35.32 14 36 14 C36 13.34 36 12.68 36 12 C35.34 12 34.68 12 34 12 Z M47 12 C47 12.66 47 13.32 47 14 C47.66 14 48.32 14 49 14 C49 13.34 49 12.68 49 12 C48.34 12 47.68 12 47 12 Z " fill="#6B6C72" transform="translate(20,0)"/>
<path d="M0 0 C25.08 0 50.16 0 76 0 C75.01 0.33 74.02 0.66 73 1 C73 1.99 73 2.98 73 4 C72.34 4 71.68 4 71 4 C71 4.99 71 5.98 71 7 C69.625 8.6875 69.625 8.6875 68 10 C67.34 10 66.68 10 66 10 C66 32.11 66 54.22 66 77 C66.66 77 67.32 77 68 77 C68 55.55 68 34.1 68 12 C68.66 12 69.32 12 70 12 C70 31.8 70 51.6 70 72 C70.66 72 71.32 72 72 72 C72 70.02 72 68.04 72 66 C72.66 66 73.32 66 74 66 C73.99555878 65.26528473 73.99111755 64.53056946 73.98654175 63.77359009 C73.94650724 56.85764632 73.91603712 49.94171983 73.89637566 43.02569008 C73.88592776 39.46987601 73.87175041 35.9141575 73.84912109 32.35839844 C73.82328168 28.272777 73.81353556 24.18725631 73.8046875 20.1015625 C73.79436493 18.82133209 73.78404236 17.54110168 73.77340698 16.22207642 C73.77325592 15.04100311 73.77310486 13.85992981 73.77294922 12.64306641 C73.768508 11.59937897 73.76406677 10.55569153 73.75949097 9.4803772 C74 7 74 7 76 5 C76 28.1 76 51.2 76 75 C74.35 75 72.7 75 71 75 C71 75.99 71 76.98 71 78 C70.01 78 69.02 78 68 78 C68 79.65 68 81.3 68 83 C69.485 83.495 69.485 83.495 71 84 C68 85 68 85 65 84 C65 84.99 65 85.98 65 87 C64.01 87 63.02 87 62 87 C61.67 86.01 61.34 85.02 61 84 C61.66 84 62.32 84 63 84 C62.67 61.89 62.34 39.78 62 17 C61.34 17 60.68 17 60 17 C60.01160156 18.30582031 60.02320312 19.61164062 60.03515625 20.95703125 C60.15639984 42.31295332 59.55191103 63.6530795 59 85 C58.67 85 58.34 85 58 85 C57.67 61.9 57.34 38.8 57 15 C33.24 15 9.48 15 -15 15 C-15 25.56 -15 36.12 -15 47 C-15.1339397 54.00313292 -15.28333753 60.99991196 -15.5 68 C-15.54859615 69.6848838 -15.59677162 71.36977978 -15.64453125 73.0546875 C-15.75826058 77.03661324 -15.87736693 81.01833896 -16 85 C-16.66 85 -17.32 85 -18 85 C-18 60.91 -18 36.82 -18 12 C-13.3698752 11.22831253 -10.58751761 10.94771148 -6.125 11.4375 C-5.15820312 11.53933594 -4.19140625 11.64117187 -3.1953125 11.74609375 C-2.47085937 11.82988281 -1.74640625 11.91367188 -1 12 C-1 11.34 -1 10.68 -1 10 C-0.34 10 0.32 10 1 10 C1 10.66 1 11.32 1 12 C4.3 12 7.6 12 11 12 C11 11.34 11 10.68 11 10 C11.99 10 12.98 10 14 10 C14 10.66 14 11.32 14 12 C21.26 12 28.52 12 36 12 C36 11.34 36 10.68 36 10 C36.99 10 37.98 10 39 10 C39 10.66 39 11.32 39 12 C41.97 12 44.94 12 48 12 C48 11.34 48 10.68 48 10 C48.99 10 49.98 10 51 10 C51.33 9.01 51.66 8.02 52 7 C52.66 7 53.32 7 54 7 C54 6.34 54 5.68 54 5 C54.99 5 55.98 5 57 5 C57 4.34 57 3.68 57 3 C55.02 3 53.04 3 51 3 C51 2.67 51 2.34 51 2 C54.3 2 57.6 2 61 2 C61 2.99 61 3.98 61 5 C60.01 5 59.02 5 58 5 C58.495 7.475 58.495 7.475 59 10 C58.34 10 57.68 10 57 10 C57 9.34 57 8.68 57 8 C56.34 8 55.68 8 55 8 C55 8.66 55 9.32 55 10 C54.01 10 53.02 10 52 10 C52 10.66 52 11.32 52 12 C54.97 12 57.94 12 61 12 C61 11.34 61 10.68 61 10 C61.66 10 62.32 10 63 10 C63 9.34 63 8.68 63 8 C63.99 8 64.98 8 66 8 C66 7.01 66 6.02 66 5 C66.99 5 67.98 5 69 5 C69 4.34 69 3.68 69 3 C69.66 3 70.32 3 71 3 C71 2.34 71 1.68 71 1 C35.855 1.495 35.855 1.495 0 2 C0 1.34 0 0.68 0 0 Z " fill="#BFC0C4" transform="translate(21,4)"/>
<path d="M0 0 C0.33 0 0.66 0 1 0 C1.04630135 10.11810524 1.081858 20.23618536 1.10362434 30.35437489 C1.11407008 35.05245005 1.12824368 39.75045283 1.15087891 44.44848633 C1.17257914 48.98072205 1.18456268 53.51288808 1.18975449 58.04517174 C1.19345532 59.77596827 1.20068194 61.50676091 1.21146011 63.23752785 C1.22593762 65.65819221 1.22797952 68.07856702 1.22705078 70.49926758 C1.23783661 71.57712524 1.23783661 71.57712524 1.24884033 72.67675781 C1.23354469 76.35098917 1.09754767 77.8536785 -1 81 C-1.99 81 -2.98 81 -4 81 C-4.33 81.99 -4.66 82.98 -5 84 C-5.66 83.67 -6.32 83.34 -7 83 C-7 83.66 -7 84.32 -7 85 C-7.99 85 -8.98 85 -10 85 C-10 83.35 -10 81.7 -10 80 C-9.01 80 -8.02 80 -7 80 C-7 79.01 -7 78.02 -7 77 C-5.35 77 -3.7 77 -2 77 C-2.33 54.56 -2.66 32.12 -3 9 C-3.33 28.47 -3.66 47.94 -4 68 C-4.66 68 -5.32 68 -6 68 C-5.814375 68.61875 -5.62875 69.2375 -5.4375 69.875 C-5 72 -5 72 -6 74 C-6.66 74 -7.32 74 -8 74 C-8 54.2 -8 34.4 -8 14 C-8.66 14 -9.32 14 -10 14 C-10 35.45 -10 56.9 -10 79 C-10.66 79 -11.32 79 -12 79 C-12 56.89 -12 34.78 -12 12 C-11.34 12 -10.68 12 -10 12 C-9.67 11.01 -9.34 10.02 -9 9 C-8.01 9 -7.02 9 -6 9 C-6 8.34 -6 7.68 -6 7 C-5.071875 6.6596875 -5.071875 6.6596875 -4.125 6.3125 C-1.38589791 4.62070165 -0.94975528 3.00755839 0 0 Z " fill="#0A0A0A" transform="translate(99,2)"/>
<path d="M0 0 C0.99 0.33 1.98 0.66 3 1 C3 1.66 3 2.32 3 3 C2.01 3 1.02 3 0 3 C0 28.74 0 54.48 0 81 C25.74 81 51.48 81 78 81 C78.33 56.91 78.66 32.82 79 8 C79.66 7.67 80.32 7.34 81 7 C81.17748277 15.22345634 81.34339942 23.44703187 81.49477577 31.6710062 C81.56543339 35.49020264 81.63999153 39.30923792 81.72363281 43.12817383 C81.80428652 46.81738351 81.87447332 50.50666066 81.93757248 54.19621086 C81.96338788 55.59999803 81.99289999 57.0037225 82.02626419 58.40735054 C82.07254145 60.38146634 82.10415809 62.35590898 82.13525391 64.33032227 C82.15746002 65.45173111 82.17966614 66.57313995 82.20254517 67.72853088 C81.9715883 71.45890014 81.14132796 74.45112026 80 78 C80.99 78 81.98 78 83 78 C83 77.01 83 76.02 83 75 C84.98 75.495 84.98 75.495 87 76 C87 76.99 87 77.98 87 79 C86.01 79 85.02 79 84 79 C84 79.99 84 80.98 84 82 C82.68 82 81.36 82 80 82 C80 82.66 80 83.32 80 84 C53.27 84 26.54 84 -1 84 C-1 83.34 -1 82.68 -1 82 C-1.66 82 -2.32 82 -3 82 C-3 55.93 -3 29.86 -3 3 C-2.34 3 -1.68 3 -1 3 C-0.67 2.01 -0.34 1.02 0 0 Z " fill="#030303" transform="translate(3,13)"/>
<path d="M0 0 C2.97 0 5.94 0 9 0 C9 22.44 9 44.88 9 68 C4.545 68.495 4.545 68.495 0 69 C0 46.23 0 23.46 0 0 Z " fill="#1D1D1E" transform="translate(6,21)"/>
<path d="M0 0 C0.33 0 0.66 0 1 0 C1 23.1 1 46.2 1 70 C-0.65 70 -2.3 70 -4 70 C-4 70.99 -4 71.98 -4 73 C-4.99 73 -5.98 73 -7 73 C-7 74.65 -7 76.3 -7 78 C-6.01 78.33 -5.02 78.66 -4 79 C-7 80 -7 80 -10 79 C-10 79.99 -10 80.98 -10 82 C-10.99 82 -11.98 82 -13 82 C-13.33 81.01 -13.66 80.02 -14 79 C-13.34 79 -12.68 79 -12 79 C-12.10756407 70.33328884 -12.22021017 61.66666296 -12.33933926 53.000103 C-12.39449643 48.97584481 -12.44790482 44.95157927 -12.49731445 40.92724609 C-12.54506441 37.04333509 -12.59741088 33.15951072 -12.65294075 29.27570343 C-12.67331618 27.79417326 -12.69203711 26.31261938 -12.70907402 24.83104706 C-12.73322485 22.75544167 -12.76326432 20.67999861 -12.79467773 18.60449219 C-12.81022202 17.42312683 -12.8257663 16.24176147 -12.84178162 15.02459717 C-12.97373377 12.50212098 -13.2628844 10.40156496 -14 8 C-12.35 7.67 -10.7 7.34 -9 7 C-9 28.45 -9 49.9 -9 72 C-8.34 72 -7.68 72 -7 72 C-7 50.55 -7 29.1 -7 7 C-6.34 7 -5.68 7 -5 7 C-5 26.8 -5 46.6 -5 67 C-4.34 67 -3.68 67 -3 67 C-3 65.02 -3 63.04 -3 61 C-2.34 61 -1.68 61 -1 61 C-1.00222061 60.26528473 -1.00444122 59.53056946 -1.00672913 58.77359009 C-1.02674643 51.85762914 -1.04198151 44.94167252 -1.05181217 38.02569008 C-1.05703606 34.46991365 -1.06412478 30.91416111 -1.07543945 27.35839844 C-1.08835914 23.27278409 -1.09323229 19.18719494 -1.09765625 15.1015625 C-1.10539818 13.18121689 -1.10539818 13.18121689 -1.11329651 11.22207642 C-1.11337204 10.04100311 -1.11344757 8.85992981 -1.11352539 7.64306641 C-1.115746 6.59937897 -1.11796661 5.55569153 -1.12025452 4.4803772 C-1 2 -1 2 0 0 Z " fill="#72747B" transform="translate(96,9)"/>
<path d="M0 0 C2.97 0 5.94 0 9 0 C9 22.77 9 45.54 9 69 C5.7 69 2.4 69 -1 69 C-0.67 46.23 -0.34 23.46 0 0 Z M5 3 C5 17.19 5 31.38 5 46 C5.66 46 6.32 46 7 46 C7 31.81 7 17.62 7 3 C6.34 3 5.68 3 5 3 Z " fill="#1F1F1F" transform="translate(69,21)"/>
<path d="M0 0 C25.74 0 51.48 0 78 0 C78 2.31 78 4.62 78 7 C77.195625 7.28875 76.39125 7.5775 75.5625 7.875 C72.8673532 8.73262568 72.8673532 8.73262568 72 11 C72 10.01 72 9.02 72 8 C72.66 8 73.32 8 74 8 C74 7.01 74 6.02 74 5 C49.91 4.67 25.82 4.34 1 4 C1 4.66 1 5.32 1 6 C1.99 5.67 2.98 5.34 4 5 C5.33525717 4.92026524 6.67412083 4.89228662 8.01171875 4.90234375 C9.14770508 4.90717773 9.14770508 4.90717773 10.30664062 4.91210938 C11.48516602 4.92467773 11.48516602 4.92467773 12.6875 4.9375 C13.48478516 4.94201172 14.28207031 4.94652344 15.10351562 4.95117188 C17.06904257 4.9629415 19.03453085 4.98087652 21 5 C21 5.33 21 5.66 21 6 C16.545 6.495 16.545 6.495 12 7 C12 7.66 12 8.32 12 9 C11.01 9 10.02 9 9 9 C9 8.34 9 7.68 9 7 C7.35 7 5.7 7 4 7 C4 7.66 4 8.32 4 9 C2.68 9 1.36 9 0 9 C0 9.66 0 10.32 0 11 C-0.99 11 -1.98 11 -3 11 C-3 11.99 -3 12.98 -3 14 C-4.32 14 -5.64 14 -7 14 C-7 14.66 -7 15.32 -7 16 C-9.31 16 -11.62 16 -14 16 C-14 14.35 -14 12.7 -14 11 C-13.01 11 -12.02 11 -11 11 C-11 10.34 -11 9.68 -11 9 C-9.68 9 -8.36 9 -7 9 C-7 7.68 -7 6.36 -7 5 C-6.01 5 -5.02 5 -4 5 C-4 4.34 -4 3.68 -4 3 C-2.68 3 -1.36 3 0 3 C0 2.01 0 1.02 0 0 Z " fill="#909194" transform="translate(20,0)"/>
<path d="M0 0 C0.33 0 0.66 0 1 0 C1.495 12.375 1.495 12.375 2 25 C2.33 16.75 2.66 8.5 3 0 C3.33 0 3.66 0 4 0 C4.02322252 8.48443283 4.04096548 16.96885226 4.05181217 25.45330906 C4.05701937 29.39344472 4.06407755 33.33355854 4.07543945 37.27368164 C4.08634544 41.07973888 4.09229312 44.88577518 4.09487724 48.69184685 C4.09671763 50.14022081 4.10031137 51.5885937 4.10573006 53.03695869 C4.11304298 55.07357336 4.11398665 57.11010273 4.11352539 59.14672852 C4.115746 60.30366714 4.11796661 61.46060577 4.12025452 62.65260315 C3.99570146 66.11965394 3.49063132 69.56558076 3 73 C-22.74 73 -48.48 73 -75 73 C-75 71.35 -75 69.7 -75 68 C-74.34 68 -73.68 68 -73 68 C-73 55.46 -73 42.92 -73 30 C-72.67 30 -72.34 30 -72 30 C-72 42.87 -72 55.74 -72 69 C-71.34 69 -70.68 69 -70 69 C-70 69.66 -70 70.32 -70 71 C-47.23 71 -24.46 71 -1 71 C-0.67 47.57 -0.34 24.14 0 0 Z " fill="#73757B" transform="translate(78,21)"/>
<path d="M0 0 C0.99 0 1.98 0 3 0 C3 10.23 3 20.46 3 31 C6.3 31.33 9.6 31.66 13 32 C13 21.77 13 11.54 13 1 C13.66 1 14.32 1 15 1 C15 11.23 15 21.46 15 32 C18.63 32 22.26 32 26 32 C26 27.38 26 22.76 26 18 C26.99 18 27.98 18 29 18 C29 22.62 29 27.24 29 32 C29.66 32 30.32 32 31 32 C31 27.38 31 22.76 31 18 C31.99 18 32.98 18 34 18 C34 23.61 34 29.22 34 35 C33.67 34.34 33.34 33.68 33 33 C32.34 33 31.68 33 31 33 C31 33.66 31 34.32 31 35 C19.45 35 7.9 35 -4 35 C-4 33.02 -4 31.04 -4 29 C-3.01 29 -2.02 29 -1 29 C-0.67 19.43 -0.34 9.86 0 0 Z " fill="#9C9EA3" transform="translate(28,53)"/>
<path d="M0 0 C0.66 0 1.32 0 2 0 C2 7.92 2 15.84 2 24 C5.63 24 9.26 24 13 24 C13 16.08 13 8.16 13 0 C13.66 0 14.32 0 15 0 C15 7.92 15 15.84 15 24 C16.98 24 18.96 24 21 24 C21.33 23.34 21.66 22.68 22 22 C22.495 23.485 22.495 23.485 23 25 C22.34 25 21.68 25 21 25 C21 31.93 21 38.86 21 46 C20.34 46 19.68 46 19 46 C19 45.34 19 44.68 19 44 C16.69 44.66 14.38 45.32 12 46 C12 45.01 12 44.02 12 43 C14.475 42.505 14.475 42.505 17 42 C17.33 37.38 17.66 32.76 18 28 C15.85757813 28.08378906 13.71515625 28.16757812 11.5078125 28.25390625 C9.43607962 28.33127918 7.36428744 28.40681782 5.29248047 28.48217773 C3.85100177 28.5355959 2.40959259 28.59092518 0.96826172 28.64819336 C-1.10173553 28.73010997 -3.17188427 28.80518359 -5.2421875 28.87890625 C-6.4885498 28.9260376 -7.73491211 28.97316895 -9.01904297 29.02172852 C-12 29 -12 29 -14 28 C-14 31.96 -14 35.92 -14 40 C-14.99 40 -15.98 40 -17 40 C-17 35.05 -17 30.1 -17 25 C-11.39 25 -5.78 25 0 25 C0 16.75 0 8.5 0 0 Z " fill="#B8B9BD" transform="translate(41,23)"/>
<path d="M0 0 C0.66 0 1.32 0 2 0 C2.02685412 2.31243792 2.04632841 4.6249627 2.0625 6.9375 C2.07410156 8.22527344 2.08570312 9.51304688 2.09765625 10.83984375 C2 14 2 14 1 15 C-0.66617115 15.04063832 -2.33388095 15.042721 -4 15 C-3.83628906 15.50015625 -3.67257813 16.0003125 -3.50390625 16.515625 C-2.8121089 19.9263468 -2.89495335 23.28735757 -2.9375 26.75 C-2.94201172 27.44738281 -2.94652344 28.14476563 -2.95117188 28.86328125 C-2.9628998 30.57555803 -2.98083347 32.28779033 -3 34 C-6.63 34 -10.26 34 -14 34 C-13.67 23.11 -13.34 12.22 -13 1 C-9.7 1 -6.4 1 -3 1 C-3 5.29 -3 9.58 -3 14 C-2.01 14 -1.02 14 0 14 C0 9.38 0 4.76 0 0 Z M-8 3 C-8 7.29 -8 11.58 -8 16 C-7.34 16 -6.68 16 -6 16 C-6 11.71 -6 7.42 -6 3 C-6.66 3 -7.32 3 -8 3 Z " fill="#101111" transform="translate(57,51)"/>
<path d="M0 0 C25.08 0 50.16 0 76 0 C75.01 0.33 74.02 0.66 73 1 C73 1.99 73 2.98 73 4 C72.34 4 71.68 4 71 4 C71 4.99 71 5.98 71 7 C69.625 8.6875 69.625 8.6875 68 10 C67.34 10 66.68 10 66 10 C66 10.66 66 11.32 66 12 C65.01 12 64.02 12 63 12 C60.47076544 16.89463206 60.58546582 21.74036922 60.4375 27.125 C60.40213135 28.1658374 60.3667627 29.2066748 60.33032227 30.27905273 C60.20488628 34.18568377 60.09947923 38.09264242 60 42 C59.97808594 42.85873718 59.95617187 43.71747437 59.93359375 44.60223389 C59.59303756 58.0675065 59.28797899 71.53350994 59 85 C58.67 85 58.34 85 58 85 C57.67 61.9 57.34 38.8 57 15 C51.06 15 45.12 15 39 15 C39 14.01 39 13.02 39 12 C41.97 12 44.94 12 48 12 C48 11.34 48 10.68 48 10 C48.99 10 49.98 10 51 10 C51.33 9.01 51.66 8.02 52 7 C52.66 7 53.32 7 54 7 C54 6.34 54 5.68 54 5 C54.99 5 55.98 5 57 5 C57 4.34 57 3.68 57 3 C55.02 3 53.04 3 51 3 C51 2.67 51 2.34 51 2 C54.3 2 57.6 2 61 2 C61 2.99 61 3.98 61 5 C60.01 5 59.02 5 58 5 C58.495 7.475 58.495 7.475 59 10 C58.34 10 57.68 10 57 10 C57 9.34 57 8.68 57 8 C56.34 8 55.68 8 55 8 C55 8.66 55 9.32 55 10 C54.01 10 53.02 10 52 10 C52 10.66 52 11.32 52 12 C54.97 12 57.94 12 61 12 C61 11.34 61 10.68 61 10 C61.66 10 62.32 10 63 10 C63 9.34 63 8.68 63 8 C63.99 8 64.98 8 66 8 C66 7.01 66 6.02 66 5 C66.99 5 67.98 5 69 5 C69 4.34 69 3.68 69 3 C69.66 3 70.32 3 71 3 C71 2.34 71 1.68 71 1 C35.855 1.495 35.855 1.495 0 2 C0 1.34 0 0.68 0 0 Z " fill="#BFC1C6" transform="translate(21,4)"/>
<path d="M0 0 C2.97 0 5.94 0 9 0 C9 22.44 9 44.88 9 68 C8.01 67.67 7.02 67.34 6 67 C6.66 67 7.32 67 8 67 C7.85890014 64.89551062 7.71195825 62.7914123 7.5625 60.6875 C7.48128906 59.51574219 7.40007812 58.34398437 7.31640625 57.13671875 C7.1132629 53.97409042 7.1132629 53.97409042 6 51 C6.66 51 7.32 51 8 51 C8 50.34 8 49.68 8 49 C7.34 49 6.68 49 6 49 C6 47.68 6 46.36 6 45 C5.01 44.67 4.02 44.34 3 44 C3.66 44 4.32 44 5 44 C5 38.39 5 32.78 5 27 C5.66 27 6.32 27 7 27 C7 19.08 7 11.16 7 3 C6.34 3 5.68 3 5 3 C5 10.59 5 18.18 5 26 C3.02 26 1.04 26 -1 26 C-0.67 17.42 -0.34 8.84 0 0 Z " fill="#010101" transform="translate(57,21)"/>
<path d="M0 0 C0.33 0 0.66 0 1 0 C1.33 20.46 1.66 40.92 2 62 C2.99 62 3.98 62 5 62 C4.99111755 61.26750534 4.98223511 60.53501068 4.9730835 59.78031921 C4.89295736 52.87947222 4.83204574 45.97869468 4.79275131 39.07750225 C4.77187023 35.52941238 4.74354455 31.98170665 4.69824219 28.43383789 C4.64649303 24.35559387 4.62705926 20.27775374 4.609375 16.19921875 C4.58872986 14.92414963 4.56808472 13.64908051 4.54681396 12.33537292 C4.54651184 11.15437515 4.54620972 9.97337738 4.54589844 8.7565918 C4.53701599 7.71512497 4.52813354 6.67365814 4.51898193 5.60063171 C5 3 5 3 9 0 C9 22.44 9 44.88 9 68 C4.545 68.495 4.545 68.495 0 69 C0 46.23 0 23.46 0 0 Z " fill="#121314" transform="translate(6,21)"/>
<path d="M0 0 C0 0.66 0 1.32 0 2 C2.64 2 5.28 2 8 2 C8 2.66 8 3.32 8 4 C7.01 4 6.02 4 5 4 C5 4.66 5 5.32 5 6 C3.6875 7.625 3.6875 7.625 2 9 C1.01 9 0.02 9 -1 9 C-1 9.66 -1 10.32 -1 11 C-3.97 11 -6.94 11 -10 11 C-10 10.34 -10 9.68 -10 9 C-10.99 9 -11.98 9 -13 9 C-13 9.66 -13 10.32 -13 11 C-16.3 11 -19.6 11 -23 11 C-23 10.34 -23 9.68 -23 9 C-23.66 9 -24.32 9 -25 9 C-25 9.66 -25 10.32 -25 11 C-27.31 11 -29.62 11 -32 11 C-32 10.34 -32 9.68 -32 9 C-30.68 9 -29.36 9 -28 9 C-28 8.01 -28 7.02 -28 6 C-27.01 6 -26.02 6 -25 6 C-25 5.34 -25 4.68 -25 4 C-23.68 4 -22.36 4 -21 4 C-21 3.34 -21 2.68 -21 2 C-19.35 2 -17.7 2 -16 2 C-16 2.66 -16 3.32 -16 4 C-15.01 4 -14.02 4 -13 4 C-13 3.34 -13 2.68 -13 2 C-11.58461283 1.66127487 -10.16762037 1.32925376 -8.75 1 C-7.56664062 0.7215625 -7.56664062 0.7215625 -6.359375 0.4375 C-4 0 -4 0 0 0 Z M-15 7 C-14 9 -14 9 -14 9 Z M-3 7 C-3 7.66 -3 8.32 -3 9 C-2.34 9 -1.68 9 -1 9 C-1 8.34 -1 7.68 -1 7 C-1.66 7 -2.32 7 -3 7 Z " fill="#454649" transform="translate(45,5)"/>
<path d="M0 0 C3 3 3 3 3.36076355 5.10710144 C3.35410172 5.91762466 3.34743988 6.72814789 3.34057617 7.56323242 C3.34034958 8.48396042 3.34012299 9.40468842 3.33988953 10.35331726 C3.32440567 11.34402725 3.30892181 12.33473724 3.29296875 13.35546875 C3.28872391 14.37224197 3.28447906 15.3890152 3.28010559 16.43659973 C3.26329997 19.68716812 3.22564382 22.9371187 3.1875 26.1875 C3.17245562 28.38996501 3.15876679 30.59243973 3.14648438 32.79492188 C3.11339036 38.19682572 3.06317223 43.59836872 3 49 C4.65 49 6.3 49 8 49 C8 55.6 8 62.2 8 69 C5.03 69 2.06 69 -1 69 C-0.67 46.23 -0.34 23.46 0 0 Z " fill="#2A2A2C" transform="translate(69,21)"/>
<path d="M0 0 C3.63 0 7.26 0 11 0 C11 8.58 11 17.16 11 26 C7.37 26 3.74 26 0 26 C0 17.42 0 8.84 0 0 Z M7 3 C7 9.93 7 16.86 7 24 C7.33 24 7.66 24 8 24 C8 17.07 8 10.14 8 3 C7.67 3 7.34 3 7 3 Z " fill="#3C3C3D" transform="translate(30,21)"/>
<path d="M0 0 C0 22.77 0 45.54 0 69 C0.66 69 1.32 69 2 69 C2 69.66 2 70.32 2 71 C2.99 71.33 3.98 71.66 5 72 C2 73 2 73 -1 72 C-1 72.99 -1 73.98 -1 75 C-1.99 75 -2.98 75 -4 75 C-4.33 74.01 -4.66 73.02 -5 72 C-4.34 72 -3.68 72 -3 72 C-3.10756407 63.33328884 -3.22021017 54.66666296 -3.33933926 46.000103 C-3.39449643 41.97584481 -3.44790482 37.95157927 -3.49731445 33.92724609 C-3.54506441 30.04333509 -3.59741088 26.15951072 -3.65294075 22.27570343 C-3.67331618 20.79417326 -3.69203711 19.31261938 -3.70907402 17.83104706 C-3.73322485 15.75544167 -3.76326432 13.67999861 -3.79467773 11.60449219 C-3.81022202 10.42312683 -3.8257663 9.24176147 -3.84178162 8.02459717 C-3.97373377 5.50212098 -4.2628844 3.40156496 -5 1 C-3 0 -3 0 0 0 Z " fill="#5F6167" transform="translate(87,16)"/>
<path d="M0 0 C25.41 0 50.82 0 77 0 C77 0.99 77 1.98 77 3 C51.59 3 26.18 3 0 3 C0 2.01 0 1.02 0 0 Z " fill="#060606" transform="translate(20,0)"/>
<path d="M0 0 C8.58 0 17.16 0 26 0 C26 4.62 26 9.24 26 14 C25.01 14 24.02 14 23 14 C23 9.71 23 5.42 23 1 C19.7 1 16.4 1 13 1 C13 11.56 13 22.12 13 33 C12.67 33 12.34 33 12 33 C12 23.1 12 13.2 12 3 C11.34 3 10.68 3 10 3 C10 9.93 10 16.86 10 24 C9.67 24 9.34 24 9 24 C8.67 21.69 8.34 19.38 8 17 C6.68 17 5.36 17 4 17 C4 17.66 4 18.32 4 19 C5.32 19 6.64 19 8 19 C8 19.66 8 20.32 8 21 C6.02 21 4.04 21 2 21 C2.01047363 20.43490723 2.02094727 19.86981445 2.03173828 19.28759766 C2.07324788 16.73344347 2.0993096 14.17936018 2.125 11.625 C2.14175781 10.73554687 2.15851562 9.84609375 2.17578125 8.9296875 C2.18222656 8.07890625 2.18867187 7.228125 2.1953125 6.3515625 C2.20578613 5.56604004 2.21625977 4.78051758 2.22705078 3.97119141 C2.17990127 1.765535 2.17990127 1.765535 0 0 Z M6 3 C6 7.29 6 11.58 6 16 C6.33 16 6.66 16 7 16 C7 11.71 7 7.42 7 3 C6.67 3 6.34 3 6 3 Z " fill="#424345" transform="translate(31,51)"/>
<path d="M0 0 C3.3 0 6.6 0 10 0 C10 8.58 10 17.16 10 26 C6.37 26 2.74 26 -1 26 C-0.67 17.42 -0.34 8.84 0 0 Z M5 3 C5 9.93 5 16.86 5 24 C5.66 24 6.32 24 7 24 C7 17.07 7 10.14 7 3 C6.34 3 5.68 3 5 3 Z " fill="#101010" transform="translate(44,21)"/>
<path d="M0 0 C0.495 1.98 0.495 1.98 1 4 C1.66 4 2.32 4 3 4 C3 4.66 3 5.32 3 6 C2.34 6 1.68 6 1 6 C1.66 6.66 2.32 7.32 3 8 C3.16015625 11.1875 3.16015625 11.1875 3.0625 15 C2.74750315 19.66444067 2.74750315 19.66444067 4 24 C-12.17 24 -28.34 24 -45 24 C-45 23.67 -45 23.34 -45 23 C-39.83279599 22.14324615 -34.89219378 21.86532419 -29.66015625 21.90234375 C-28.89319931 21.9037587 -28.12624237 21.90517365 -27.33604431 21.90663147 C-24.9114881 21.91218234 -22.48702781 21.92472537 -20.0625 21.9375 C-18.40820447 21.94252136 -16.75390747 21.94708315 -15.09960938 21.95117188 C-11.06636988 21.96213562 -7.03320114 21.97936576 -3 22 C-3 21.34 -3 20.68 -3 20 C-2.34 20 -1.68 20 -1 20 C-0.67 15.05 -0.34 10.1 0 5 C-0.99 5 -1.98 5 -3 5 C-3 9.62 -3 14.24 -3 19 C-3.66 19 -4.32 19 -5 19 C-5 14.38 -5 9.76 -5 5 C-6.32 4.67 -7.64 4.34 -9 4 C-6.64046906 1.64046906 -5.22104383 1.50858587 -2 1 C-2 1.66 -2 2.32 -2 3 C-1.34 3 -0.68 3 0 3 C0 2.01 0 1.02 0 0 Z " fill="#292A2C" transform="translate(62,66)"/>
<path d="M0 0 C0.33 0 0.66 0 1 0 C1.17748277 8.22345634 1.34339942 16.44703187 1.49477577 24.6710062 C1.56543339 28.49020264 1.63999153 32.30923792 1.72363281 36.12817383 C1.80428652 39.81738351 1.87447332 43.50666066 1.93757248 47.19621086 C1.96338788 48.59999803 1.99289999 50.0037225 2.02626419 51.40735054 C2.07254145 53.38146634 2.10415809 55.35590898 2.13525391 57.33032227 C2.15746002 58.45173111 2.17966614 59.57313995 2.20254517 60.72853088 C1.9715883 64.45890014 1.14132796 67.45112026 0 71 C0.99 71 1.98 71 3 71 C3 70.01 3 69.02 3 68 C4.32 68.33 5.64 68.66 7 69 C7 69.99 7 70.98 7 72 C6.01 72 5.02 72 4 72 C4 72.99 4 73.98 4 75 C2.68 75 1.36 75 0 75 C-0.495 75.99 -0.495 75.99 -1 77 C-2.18156614 73.45530159 -2.08692456 70.71567644 -2.03759766 66.97412109 C-2.02959641 66.26327866 -2.02159515 65.55243622 -2.01335144 64.8200531 C-1.98547588 62.47108241 -1.9500012 60.12229765 -1.9140625 57.7734375 C-1.89229584 56.14344694 -1.87084619 54.51345211 -1.84970093 52.88345337 C-1.80421251 49.46879486 -1.75498597 46.05421594 -1.703125 42.63964844 C-1.6367921 38.25342344 -1.57956713 33.86713557 -1.52509499 29.48074913 C-1.48234879 26.11622765 -1.43490107 22.75178531 -1.38599777 19.38734818 C-1.36303558 17.76936439 -1.34153406 16.15135922 -1.32149124 14.53333664 C-1.29282886 12.27781991 -1.25787878 10.02248834 -1.22119141 7.76708984 C-1.20263092 6.48152191 -1.18407043 5.19595398 -1.16494751 3.87142944 C-1 1 -1 1 0 0 Z " fill="#0E0E0F" transform="translate(83,20)"/>
<path d="M0 0 C1.12152969 -0.00095673 2.24305939 -0.00191345 3.39857483 -0.00289917 C5.76107845 -0.00357709 8.12358398 -0.00175 10.48608398 0.00244141 C14.08256254 0.00779005 17.67891594 0.00248573 21.27539062 -0.00390625 C23.57942736 -0.0032453 25.88346401 -0.00196379 28.1875 0 C29.25338852 -0.00202423 30.31927704 -0.00404846 31.41746521 -0.00613403 C37.4136909 0.01249546 43.21358777 0.35345486 49.16015625 1.1328125 C49.16015625 1.7928125 49.16015625 2.4528125 49.16015625 3.1328125 C26.39015625 3.1328125 3.62015625 3.1328125 -19.83984375 3.1328125 C-19.83984375 2.4728125 -19.83984375 1.8128125 -19.83984375 1.1328125 C-13.19738138 0.13094631 -6.71119823 -0.01272109 0 0 Z " fill="#B6B8BD" transform="translate(27.83984375,88.8671875)"/>
<path d="M0 0 C0.33 0 0.66 0 1 0 C2.33250764 21.65324916 2.09858196 43.31651933 2 65 C1.01 64.67 0.02 64.34 -1 64 C-0.34 64 0.32 64 1 64 C0.85890014 61.89551062 0.71195825 59.7914123 0.5625 57.6875 C0.48128906 56.51574219 0.40007812 55.34398437 0.31640625 54.13671875 C0.1132629 50.97409042 0.1132629 50.97409042 -1 48 C-0.34 48 0.32 48 1 48 C1 47.34 1 46.68 1 46 C0.34 46 -0.32 46 -1 46 C-1 44.68 -1 43.36 -1 42 C-1.99 41.67 -2.98 41.34 -4 41 C-3.34 41 -2.68 41 -2 41 C-2 35.39 -2 29.78 -2 24 C-1.34 24 -0.68 24 0 24 C0 16.08 0 8.16 0 0 Z " fill="#0F0F0F" transform="translate(64,24)"/>
<path d="M0 0 C0.33 0 0.66 0 1 0 C1 25.08 1 50.16 1 76 C0.01 76 -0.98 76 -2 76 C-2.33 76.99 -2.66 77.98 -3 79 C-3.66 78.67 -4.32 78.34 -5 78 C-5 78.66 -5 79.32 -5 80 C-5.99 80 -6.98 80 -8 80 C-8 78.35 -8 76.7 -8 75 C-7.01 75 -6.02 75 -5 75 C-5 74.01 -5 73.02 -5 72 C-3.35 72 -1.7 72 0 72 C0 48.24 0 24.48 0 0 Z " fill="#1A1A1B" transform="translate(97,7)"/>
<path d="M0 0 C1.21236328 0.01353516 1.21236328 0.01353516 2.44921875 0.02734375 C3.37154297 0.04474609 3.37154297 0.04474609 4.3125 0.0625 C3.3225 0.3925 2.3325 0.7225 1.3125 1.0625 C1.3125 1.7225 1.3125 2.3825 1.3125 3.0625 C0.3225 3.0625 -0.6675 3.0625 -1.6875 3.0625 C-1.6875 4.0525 -1.6875 5.0425 -1.6875 6.0625 C-0.3675 6.0625 0.9525 6.0625 2.3125 6.0625 C2.3125 6.7225 2.3125 7.3825 2.3125 8.0625 C2.9725 8.0625 3.6325 8.0625 4.3125 8.0625 C4.3125 8.7225 4.3125 9.3825 4.3125 10.0625 C1.3425 10.0625 -1.6275 10.0625 -4.6875 10.0625 C-4.6875 9.4025 -4.6875 8.7425 -4.6875 8.0625 C-5.6775 8.0625 -6.6675 8.0625 -7.6875 8.0625 C-7.6875 8.7225 -7.6875 9.3825 -7.6875 10.0625 C-10.6575 10.0625 -13.6275 10.0625 -16.6875 10.0625 C-16.6875 9.4025 -16.6875 8.7425 -16.6875 8.0625 C-15.6975 8.0625 -14.7075 8.0625 -13.6875 8.0625 C-13.6875 7.4025 -13.6875 6.7425 -13.6875 6.0625 C-12.6975 6.0625 -11.7075 6.0625 -10.6875 6.0625 C-10.6875 5.0725 -10.6875 4.0825 -10.6875 3.0625 C-9.6975 3.0625 -8.7075 3.0625 -7.6875 3.0625 C-7.6875 2.4025 -7.6875 1.7425 -7.6875 1.0625 C-4.80538698 0.10179566 -2.98899956 -0.04331883 0 0 Z M-10.6875 6.0625 C-10.6875 6.7225 -10.6875 7.3825 -10.6875 8.0625 C-10.0275 8.0625 -9.3675 8.0625 -8.6875 8.0625 C-8.6875 7.4025 -8.6875 6.7425 -8.6875 6.0625 C-9.3475 6.0625 -10.0075 6.0625 -10.6875 6.0625 Z " fill="#3F4042" transform="translate(64.6875,5.9375)"/>
<path d="M0 0 C0.66 0 1.32 0 2 0 C2.16814982 7.06567939 2.3280544 14.13151059 2.48217773 21.19750977 C2.53560753 23.60217533 2.59093763 26.00679944 2.64819336 28.41137695 C2.73007666 31.86400412 2.80516584 35.31672178 2.87890625 38.76953125 C2.91945885 40.38683891 2.91945885 40.38683891 2.96083069 42.03681946 C2.98092697 43.03763046 3.00102325 44.03844147 3.02172852 45.06958008 C3.05170677 46.39195427 3.05170677 46.39195427 3.08229065 47.74104309 C3 50 3 50 2 53 C1.34 53 0.68 53 0 53 C0 35.51 0 18.02 0 0 Z " fill="#48484C" transform="translate(20,24)"/>
<path d="M0 0 C3.96 0 7.92 0 12 0 C11.67 1.32 11.34 2.64 11 4 C10.91754731 6.16428333 10.89257103 8.33099486 10.90234375 10.49682617 C10.90564697 11.81466599 10.9089502 13.1325058 10.91235352 14.49028015 C10.91647247 15.19153204 10.92059143 15.89278393 10.92483521 16.61528587 C10.93761541 18.81281375 10.94411807 21.0102812 10.94897461 23.20783997 C10.96038905 27.86775386 10.97965065 32.52761769 11 37.1875 C11.02356601 42.59728441 11.04395251 48.00704088 11.05593872 53.4168644 C11.06244404 55.58680093 11.07494858 57.75665156 11.08764648 59.92655945 C11.09094971 61.23494278 11.09425293 62.54332611 11.09765625 63.89135742 C11.10289307 65.0495549 11.10812988 66.20775238 11.11352539 67.40104675 C11 70 11 70 10 71 C7.32941149 71.14115161 4.67567762 71.04247107 2 71 C2 70.67 2 70.34 2 70 C4.31 70 6.62 70 9 70 C9 47.56 9 25.12 9 2 C6.03 2 3.06 2 0 2 C0 1.34 0 0.68 0 0 Z " fill="#737477" transform="translate(6,19)"/>
<path d="M0 0 C0.77923828 0.00451172 1.55847656 0.00902344 2.36132812 0.01367188 C4.26175268 0.02533092 6.16213706 0.04326123 8.0625 0.0625 C8.0625 0.3925 8.0625 0.7225 8.0625 1.0625 C3.6075 1.5575 3.6075 1.5575 -0.9375 2.0625 C-0.9375 2.7225 -0.9375 3.3825 -0.9375 4.0625 C-1.9275 4.0625 -2.9175 4.0625 -3.9375 4.0625 C-3.9375 3.4025 -3.9375 2.7425 -3.9375 2.0625 C-5.5875 2.0625 -7.2375 2.0625 -8.9375 2.0625 C-8.9375 2.7225 -8.9375 3.3825 -8.9375 4.0625 C-10.2575 4.0625 -11.5775 4.0625 -12.9375 4.0625 C-12.9375 4.7225 -12.9375 5.3825 -12.9375 6.0625 C-13.9275 6.0625 -14.9175 6.0625 -15.9375 6.0625 C-15.9375 7.0525 -15.9375 8.0425 -15.9375 9.0625 C-17.2575 9.0625 -18.5775 9.0625 -19.9375 9.0625 C-19.9375 9.7225 -19.9375 10.3825 -19.9375 11.0625 C-22.2475 11.0625 -24.5575 11.0625 -26.9375 11.0625 C-26.9375 9.4125 -26.9375 7.7625 -26.9375 6.0625 C-25.9475 6.3925 -24.9575 6.7225 -23.9375 7.0625 C-24.5975 7.0625 -25.2575 7.0625 -25.9375 7.0625 C-25.9375 7.7225 -25.9375 8.3825 -25.9375 9.0625 C-24.9475 9.0625 -23.9575 9.0625 -22.9375 9.0625 C-22.9375 8.4025 -22.9375 7.7425 -22.9375 7.0625 C-21.9475 7.0625 -20.9575 7.0625 -19.9375 7.0625 C-19.6075 6.0725 -19.2775 5.0825 -18.9375 4.0625 C-17.9475 4.0625 -16.9575 4.0625 -15.9375 4.0625 C-15.9375 3.0725 -15.9375 2.0825 -15.9375 1.0625 C-10.57260405 0.15766363 -5.43432543 -0.06053662 0 0 Z " fill="#8E9095" transform="translate(32.9375,4.9375)"/>
<path d="M0 0 C0.99 0.33 1.98 0.66 3 1 C3 1.66 3 2.32 3 3 C1.35 3.33 -0.3 3.66 -2 4 C-2 29.41 -2 54.82 -2 81 C-1.34 81 -0.68 81 0 81 C-0.33 81.99 -0.66 82.98 -1 84 C-1 83.34 -1 82.68 -1 82 C-1.66 82 -2.32 82 -3 82 C-3 55.93 -3 29.86 -3 3 C-2.34 3 -1.68 3 -1 3 C-0.67 2.01 -0.34 1.02 0 0 Z " fill="#141414" transform="translate(3,13)"/>
<path d="M0 0 C1.65 0 3.3 0 5 0 C5 0.66 5 1.32 5 2 C4.01 2 3.02 2 2 2 C2 2.99 2 3.98 2 5 C2.99 5 3.98 5 5 5 C5 5.66 5 6.32 5 7 C5.99 7 6.98 7 8 7 C8 7.66 8 8.32 8 9 C4.7 9 1.4 9 -2 9 C-2 8.34 -2 7.68 -2 7 C-2.66 7 -3.32 7 -4 7 C-4 7.66 -4 8.32 -4 9 C-6.31 9 -8.62 9 -11 9 C-11 8.34 -11 7.68 -11 7 C-9.68 7 -8.36 7 -7 7 C-7 6.01 -7 5.02 -7 4 C-6.01 4 -5.02 4 -4 4 C-4 3.34 -4 2.68 -4 2 C-2.68 2 -1.36 2 0 2 C0 1.34 0 0.68 0 0 Z " fill="#3A3B3D" transform="translate(24,7)"/>
<path d="M0 0 C0.99 0 1.98 0 3 0 C3 1.32 3 2.64 3 4 C13.56 4 24.12 4 35 4 C35 4.66 35 5.32 35 6 C23.45 6 11.9 6 0 6 C0 4.02 0 2.04 0 0 Z " fill="#AEB0B6" transform="translate(24,82)"/>
<path d="M0 0 C0 8.58 0 17.16 0 26 C-2.31 26 -4.62 26 -7 26 C-6.67 18.41 -6.34 10.82 -6 3 C-5.67 3 -5.34 3 -5 3 C-5 10.26 -5 17.52 -5 25 C-4.01 25 -3.02 25 -2 25 C-2 17.41 -2 9.82 -2 2 C-2.99 1.67 -3.98 1.34 -5 1 C-2 0 -2 0 0 0 Z " fill="#050505" transform="translate(41,21)"/>
<path d="M0 0 C2.31 0 4.62 0 7 0 C7 3.63 7 7.26 7 11 C4.69 11 2.38 11 0 11 C0 7.37 0 3.74 0 0 Z " fill="#46484C" transform="translate(45,74)"/>
<path d="M0 0 C0.33 0 0.66 0 1 0 C1 5.94 1 11.88 1 18 C3.64 18 6.28 18 9 18 C9.33 17.34 9.66 16.68 10 16 C10 20.95 10 25.9 10 31 C9.34 31 8.68 31 8 31 C8 27.37 8 23.74 8 20 C5.69 20 3.38 20 1 20 C1 23.63 1 27.26 1 31 C0.34 30.67 -0.32 30.34 -1 30 C-0.67 20.1 -0.34 10.2 0 0 Z " fill="#060606" transform="translate(44,54)"/>
<path d="M0 0 C0.33 0 0.66 0 1 0 C1 18.81 1 37.62 1 57 C1.66 57 2.32 57 3 57 C3 57.99 3 58.98 3 60 C1.35 60.66 -0.3 61.32 -2 62 C-2 61.01 -2 60.02 -2 59 C-1.34 59 -0.68 59 0 59 C0 39.53 0 20.06 0 0 Z " fill="#5A5B60" transform="translate(11,24)"/>
<path d="M0 0 C0.33 0 0.66 0 1 0 C1.01030746 0.71774597 1.02061493 1.43549194 1.03123474 2.17498779 C1.12926383 8.94324538 1.23178596 15.71142165 1.33933926 22.47953415 C1.39447368 25.95898084 1.44787825 29.43843607 1.49731445 32.91796875 C1.55424124 36.91936197 1.61871887 40.92060269 1.68359375 44.921875 C1.70030624 46.16990906 1.71701874 47.41794312 1.73423767 48.70379639 C1.75418289 49.86469788 1.77412811 51.02559937 1.79467773 52.22167969 C1.81022202 53.24316101 1.8257663 54.26464233 1.84178162 55.31707764 C1.91104287 57.9503588 1.91104287 57.9503588 2.57533264 60.23614502 C3 62 3 62 2 64 C1.34 64 0.68 64 0 64 C0 42.88 0 21.76 0 0 Z " fill="#262528" transform="translate(91,12)"/>
<path d="M0 0 C0.66 0 1.32 0 2 0 C2 0.66 2 1.32 2 2 C5.3 2 8.6 2 12 2 C12 1.34 12 0.68 12 0 C12.99 0 13.98 0 15 0 C15 0.66 15 1.32 15 2 C22.26 2 29.52 2 37 2 C37 1.34 37 0.68 37 0 C37.99 0 38.98 0 40 0 C40 0.99 40 1.98 40 3 C22.18 3 4.36 3 -14 3 C-13.67 2.34 -13.34 1.68 -13 1 C-8.71 1.33 -4.42 1.66 0 2 C0 1.34 0 0.68 0 0 Z " fill="#A8A9AB" transform="translate(20,14)"/>
<path d="M0 0 C3.3 0 6.6 0 10 0 C10 0.99 10 1.98 10 3 C9.01 3 8.02 3 7 3 C7.33 4.65 7.66 6.3 8 8 C7.34 8 6.68 8 6 8 C6 7.34 6 6.68 6 6 C5.34 6 4.68 6 4 6 C4 6.66 4 7.32 4 8 C3.01 8 2.02 8 1 8 C1 8.66 1 9.32 1 10 C3.64 10 6.28 10 9 10 C9 10.33 9 10.66 9 11 C2.07 11 -4.86 11 -12 11 C-12 10.67 -12 10.34 -12 10 C-9.03 10 -6.06 10 -3 10 C-3 9.34 -3 8.68 -3 8 C-2.01 8 -1.02 8 0 8 C0.33 7.01 0.66 6.02 1 5 C1.66 5 2.32 5 3 5 C3 4.34 3 3.68 3 3 C3.99 3 4.98 3 6 3 C6 2.34 6 1.68 6 1 C4.02 1 2.04 1 0 1 C0 0.67 0 0.34 0 0 Z " fill="#6D6E71" transform="translate(72,6)"/>
<path d="M0 0 C1.32 0.66 2.64 1.32 4 2 C3.34 2 2.68 2 2 2 C2 8.93 2 15.86 2 23 C0.68 23 -0.64 23 -2 23 C-2.05789006 19.54173658 -2.09355821 16.08359707 -2.125 12.625 C-2.14175781 11.64015625 -2.15851562 10.6553125 -2.17578125 9.640625 C-2.18222656 8.69960938 -2.18867187 7.75859375 -2.1953125 6.7890625 C-2.20578613 5.91975098 -2.21625977 5.05043945 -2.22705078 4.15478516 C-2 2 -2 2 0 0 Z " fill="#444344" transform="translate(60,22)"/>
<path d="M0 0 C1.98 0 3.96 0 6 0 C6 3.63 6 7.26 6 11 C4.02 11 2.04 11 0 11 C0 7.37 0 3.74 0 0 Z " fill="#494B4F" transform="translate(33,74)"/>
<path d="M0 0 C2.31 0 4.62 0 7 0 C7 0.66 7 1.32 7 2 C6.34 2 5.68 2 5 2 C5 2.99 5 3.98 5 5 C4.01 5 3.02 5 2 5 C2 5.66 2 6.32 2 7 C1.34 7 0.68 7 0 7 C0 7.66 0 8.32 0 9 C-2.97 9 -5.94 9 -9 9 C-9 8.34 -9 7.68 -9 7 C-8.01 7 -7.02 7 -6 7 C-6 6.34 -6 5.68 -6 5 C-5.34 5 -4.68 5 -4 5 C-4 5.66 -4 6.32 -4 7 C-3.01 7 -2.02 7 -1 7 C-1 6.34 -1 5.68 -1 5 C-1.66 5 -2.32 5 -3 5 C-3 4.01 -3 3.02 -3 2 C-2.01 2 -1.02 2 0 2 C0 1.34 0 0.68 0 0 Z " fill="#1F1F20" transform="translate(82,7)"/>
<path d="M0 0 C1.65 0 3.3 0 5 0 C5 3.96 5 7.92 5 12 C3.35 12 1.7 12 0 12 C0 8.04 0 4.08 0 0 Z " fill="#57585D" transform="translate(71,75)"/>
<path d="M0 0 C10.89 0 21.78 0 33 0 C33 0.33 33 0.66 33 1 C28.7643915 1.16752496 24.52859426 1.32809332 20.29248047 1.48217773 C18.85100177 1.5355959 17.40959259 1.59092518 15.96826172 1.64819336 C13.89826447 1.73010997 11.82811573 1.80518359 9.7578125 1.87890625 C7.88826904 1.94960327 7.88826904 1.94960327 5.98095703 2.02172852 C3 2 3 2 1 1 C1 4.96 1 8.92 1 13 C0.01 13 -0.98 13 -2 13 C-2 11.35 -2 9.7 -2 8 C-1.34 8 -0.68 8 0 8 C0 5.36 0 2.72 0 0 Z " fill="#797C84" transform="translate(26,50)"/>
<path d="M0 0 C0.66 0 1.32 0 2 0 C1.98839844 1.03640625 1.97679687 2.0728125 1.96484375 3.140625 C1.95546163 4.51041486 1.94636188 5.88020668 1.9375 7.25 C1.92912109 7.93191406 1.92074219 8.61382812 1.91210938 9.31640625 C1.89571608 12.69342554 1.94371232 15.77291639 3 19 C2.34 19 1.68 19 1 19 C1 18.34 1 17.68 1 17 C-1.31 17.66 -3.62 18.32 -6 19 C-6 18.01 -6 17.02 -6 16 C-4.35 15.67 -2.7 15.34 -1 15 C-0.67 10.05 -0.34 5.1 0 0 Z " fill="#AEB0B4" transform="translate(59,50)"/>
<path d="M0 0 C0.99 0 1.98 0 3 0 C3 5.28 3 10.56 3 16 C2.01 16 1.02 16 0 16 C0 10.72 0 5.44 0 0 Z " fill="#8E8F94" transform="translate(24,65)"/>
<path d="M0 0 C0.66 0 1.32 0 2 0 C2 7.92 2 15.84 2 24 C1.34 23.67 0.68 23.34 0 23 C-0.19588601 19.3545658 -0.38030536 15.7086421 -0.5625 12.0625 C-0.61857422 11.02158203 -0.67464844 9.98066406 -0.73242188 8.90820312 C-0.78076172 7.91884766 -0.82910156 6.92949219 -0.87890625 5.91015625 C-0.9260376 4.99371338 -0.97316895 4.07727051 -1.02172852 3.13305664 C-1 1 -1 1 0 0 Z " fill="#29282B" transform="translate(45,22)"/>
<path d="M0 0 C0.99 0.33 1.98 0.66 3 1 C2.67 1.99 2.34 2.98 2 4 C2.99 4 3.98 4 5 4 C5 3.01 5 2.02 5 1 C6.32 1.33 7.64 1.66 9 2 C9 2.99 9 3.98 9 5 C8.01 5 7.02 5 6 5 C6 5.99 6 6.98 6 8 C4.68 8 3.36 8 2 8 C1.67 8.66 1.34 9.32 1 10 C-0.1577506 6.52674819 -0.06866652 3.63932552 0 0 Z " fill="#303032" transform="translate(81,87)"/>
<path d="M0 0 C1.98 0 3.96 0 6 0 C6 1.32 6 2.64 6 4 C5.01 4 4.02 4 3 4 C2.67 4.99 2.34 5.98 2 7 C1.34 6.67 0.68 6.34 0 6 C0 6.66 0 7.32 0 8 C-0.99 8 -1.98 8 -3 8 C-3 6.35 -3 4.7 -3 3 C-2.01 3 -1.02 3 0 3 C0 2.01 0 1.02 0 0 Z " fill="#3A3A3C" transform="translate(92,79)"/>
<path d="M0 0 C0.66 0 1.32 0 2 0 C2 5.61 2 11.22 2 17 C3.32 17 4.64 17 6 17 C6 17.66 6 18.32 6 19 C4.02 19 2.04 19 0 19 C0 12.73 0 6.46 0 0 Z " fill="#38383C" transform="translate(33,53)"/>
<path d="M0 0 C1.32 0 2.64 0 4 0 C4 0.99 4 1.98 4 3 C3.01 3 2.02 3 1 3 C1 3.99 1 4.98 1 6 C0.01 6.33 -0.98 6.66 -2 7 C-2.33 7.66 -2.66 8.32 -3 9 C-3.99 9 -4.98 9 -6 9 C-6 9.66 -6 10.32 -6 11 C-6.99 11 -7.98 11 -9 11 C-9 10.34 -9 9.68 -9 9 C-8.34 9 -7.68 9 -7 9 C-7 8.01 -7 7.02 -7 6 C-5.68 6 -4.36 6 -3 6 C-3 4.68 -3 3.36 -3 2 C-2.01 2 -1.02 2 0 2 C0 1.34 0 0.68 0 0 Z " fill="#2D2C2C" transform="translate(16,3)"/>
<path d="M0 0 C2.64 0 5.28 0 8 0 C8 0.66 8 1.32 8 2 C7.01 2 6.02 2 5 2 C5 2.66 5 3.32 5 4 C3.6875 5.625 3.6875 5.625 2 7 C1.01 7 0.02 7 -1 7 C-1 6.34 -1 5.68 -1 5 C-1.66 5 -2.32 5 -3 5 C-3 4.01 -3 3.02 -3 2 C-2.01 2 -1.02 2 0 2 C0 1.34 0 0.68 0 0 Z " fill="#060606" transform="translate(70,7)"/>
<path d="M0 0 C1.13598633 0.00483398 1.13598633 0.00483398 2.29492188 0.00976562 C3.47344727 0.02233398 3.47344727 0.02233398 4.67578125 0.03515625 C5.47306641 0.03966797 6.27035156 0.04417969 7.09179688 0.04882812 C9.05732382 0.06059775 11.0228121 0.07853277 12.98828125 0.09765625 C12.98828125 0.42765625 12.98828125 0.75765625 12.98828125 1.09765625 C8.53328125 1.59265625 8.53328125 1.59265625 3.98828125 2.09765625 C3.98828125 2.75765625 3.98828125 3.41765625 3.98828125 4.09765625 C2.99828125 4.09765625 2.00828125 4.09765625 0.98828125 4.09765625 C0.98828125 3.43765625 0.98828125 2.77765625 0.98828125 2.09765625 C-0.66171875 2.09765625 -2.31171875 2.09765625 -4.01171875 2.09765625 C-4.01171875 2.75765625 -4.01171875 3.41765625 -4.01171875 4.09765625 C-5.00171875 4.09765625 -5.99171875 4.09765625 -7.01171875 4.09765625 C-7.01171875 3.10765625 -7.01171875 2.11765625 -7.01171875 1.09765625 C-4.30455633 0.19526878 -2.77395107 -0.02085677 0 0 Z " fill="#727479" transform="translate(28.01171875,4.90234375)"/>
<path d="M0 0 C2.64 0 5.28 0 8 0 C8 0.66 8 1.32 8 2 C7.01 2 6.02 2 5 2 C5 2.66 5 3.32 5 4 C3.6875 5.625 3.6875 5.625 2 7 C1.01 7 0.02 7 -1 7 C-1 6.34 -1 5.68 -1 5 C-1.66 5 -2.32 5 -3 5 C-3 4.01 -3 3.02 -3 2 C-2.34 2 -1.68 2 -1 2 C-1 2.66 -1 3.32 -1 4 C-0.01 4 0.98 4 2 4 C2 3.34 2 2.68 2 2 C1.34 2 0.68 2 0 2 C0 1.34 0 0.68 0 0 Z " fill="#0B0B0C" transform="translate(45,7)"/>
<path d="M0 0 C0.99 0 1.98 0 3 0 C3 3.96 3 7.92 3 12 C2.01 12 1.02 12 0 12 C0 8.04 0 4.08 0 0 Z " fill="#97999E" transform="translate(54,53)"/>
<path d="M0 0 C0.99 0 1.98 0 3 0 C3 0.66 3 1.32 3 2 C2.34 2 1.68 2 1 2 C1 2.66 1 3.32 1 4 C3.64 4 6.28 4 9 4 C9 4.33 9 4.66 9 5 C2.07 5 -4.86 5 -12 5 C-12 4.67 -12 4.34 -12 4 C-9.03 4 -6.06 4 -3 4 C-3 3.34 -3 2.68 -3 2 C-2.01 2 -1.02 2 0 2 C0 1.34 0 0.68 0 0 Z " fill="#84858A" transform="translate(72,12)"/>
<path d="M0 0 C1.21236328 0.01353516 1.21236328 0.01353516 2.44921875 0.02734375 C3.37154297 0.04474609 3.37154297 0.04474609 4.3125 0.0625 C3.3225 0.3925 2.3325 0.7225 1.3125 1.0625 C1.3125 1.7225 1.3125 2.3825 1.3125 3.0625 C0.3225 3.0625 -0.6675 3.0625 -1.6875 3.0625 C-1.6875 3.7225 -1.6875 4.3825 -1.6875 5.0625 C-2.6775 5.0625 -3.6675 5.0625 -4.6875 5.0625 C-4.6875 4.4025 -4.6875 3.7425 -4.6875 3.0625 C-5.6775 3.0625 -6.6675 3.0625 -7.6875 3.0625 C-7.6875 2.4025 -7.6875 1.7425 -7.6875 1.0625 C-4.80538698 0.10179566 -2.98899956 -0.04331883 0 0 Z " fill="#161618" transform="translate(64.6875,5.9375)"/>
<path d="M0 0 C0.33 0 0.66 0 1 0 C1 5.61 1 11.22 1 17 C2.65 17 4.3 17 6 17 C6 17.66 6 18.32 6 19 C3.69 19 1.38 19 -1 19 C-0.67 12.73 -0.34 6.46 0 0 Z " fill="#494A4E" transform="translate(46,53)"/>
<path d="M0 0 C0.33 0 0.66 0 1 0 C1.33 7.26 1.66 14.52 2 22 C0.02 22 -1.96 22 -4 22 C-3.67 21.34 -3.34 20.68 -3 20 C-2.01 20 -1.02 20 0 20 C0 13.4 0 6.8 0 0 Z " fill="#090908" transform="translate(60,25)"/>
<path d="M0 0 C0.99 0 1.98 0 3 0 C3 3.3 3 6.6 3 10 C2.01 10 1.02 10 0 10 C0 6.7 0 3.4 0 0 Z " fill="#4B4C50" transform="translate(72,76)"/>
<path d="M0 0 C0.66 0.33 1.32 0.66 2 1 C1.34 3.64 0.68 6.28 0 9 C-0.33 9 -0.66 9 -1 9 C-1 7.35 -1 5.7 -1 4 C-1.99 4 -2.98 4 -4 4 C-4 5.32 -4 6.64 -4 8 C-5.32 8 -6.64 8 -8 8 C-8 7.34 -8 6.68 -8 6 C-7.34 6 -6.68 6 -6 6 C-5.67 5.01 -5.34 4.02 -5 3 C-4.01 3 -3.02 3 -2 3 C-2 2.34 -2 1.68 -2 1 C-1.34 0.67 -0.68 0.34 0 0 Z " fill="#484A4E" transform="translate(95,8)"/>
<path d="M0 0 C1.32 0 2.64 0 4 0 C4 0.99 4 1.98 4 3 C3.01 3 2.02 3 1 3 C1 3.66 1 4.32 1 5 C0.01 5 -0.98 5 -2 5 C-2 5.66 -2 6.32 -2 7 C-3.32 7 -4.64 7 -6 7 C-6 6.34 -6 5.68 -6 5 C-5.01 5 -4.02 5 -3 5 C-2.67 4.01 -2.34 3.02 -2 2 C-1.34 2 -0.68 2 0 2 C0 1.34 0 0.68 0 0 Z " fill="#838488" transform="translate(50,9)"/>
<path d="M0 0 C1.32 0 2.64 0 4 0 C3.67 1.65 3.34 3.3 3 5 C1.02 5.33 -0.96 5.66 -3 6 C-3 5.01 -3 4.02 -3 3 C-2.01 3 -1.02 3 0 3 C0 2.01 0 1.02 0 0 Z " fill="#A8AAB0" transform="translate(17,6)"/>
<path d="M0 0 C0.33 0 0.66 0 1 0 C1.06058594 0.81984375 1.12117188 1.6396875 1.18359375 2.484375 C1.26738281 3.56203125 1.35117188 4.6396875 1.4375 5.75 C1.51871094 6.81734375 1.59992188 7.8846875 1.68359375 8.984375 C1.91184891 11.89974208 1.91184891 11.89974208 2.59765625 14.265625 C3 16 3 16 2 18 C1.34 18 0.68 18 0 18 C0 12.06 0 6.12 0 0 Z " fill="#1A1A1B" transform="translate(91,58)"/>
<path d="M0 0 C1.32 0 2.64 0 4 0 C4 0.66 4 1.32 4 2 C4.66 2 5.32 2 6 2 C6 2.66 6 3.32 6 4 C3.03 4 0.06 4 -3 4 C-3 3.34 -3 2.68 -3 2 C-2.01 2 -1.02 2 0 2 C0 1.34 0 0.68 0 0 Z " fill="#0C0C0C" transform="translate(63,12)"/>
<path d="M0 0 C0.33 0.99 0.66 1.98 1 3 C0.34 3 -0.32 3 -1 3 C-1 3.66 -1 4.32 -1 5 C-3.31 5 -5.62 5 -8 5 C-8 4.34 -8 3.68 -8 3 C-6.68 3 -5.36 3 -4 3 C-4 2.34 -4 1.68 -4 1 C-2.68 0.67 -1.36 0.34 0 0 Z " fill="#0A0A0A" transform="translate(21,11)"/>
<path d="M0 0 C0.66 0 1.32 0 2 0 C2 2.97 2 5.94 2 9 C1.01 9 0.02 9 -1 9 C-0.67 6.03 -0.34 3.06 0 0 Z " fill="#47464B" transform="translate(21,79)"/>
<path d="M0 0 C0.99 0 1.98 0 3 0 C3 0.66 3 1.32 3 2 C3.99 2 4.98 2 6 2 C6 2.66 6 3.32 6 4 C3.03 4 0.06 4 -3 4 C-3 3.34 -3 2.68 -3 2 C-2.01 2 -1.02 2 0 2 C0 1.34 0 0.68 0 0 Z " fill="#09090A" transform="translate(38,12)"/>
<path d="M0 0 C0.99 0 1.98 0 3 0 C3 0.66 3 1.32 3 2 C3.99 2 4.98 2 6 2 C6 2.66 6 3.32 6 4 C3.03 4 0.06 4 -3 4 C-3 3.34 -3 2.68 -3 2 C-2.01 2 -1.02 2 0 2 C0 1.34 0 0.68 0 0 Z " fill="#060606" transform="translate(26,12)"/>
<path d="M0 0 C0.33 0.99 0.66 1.98 1 3 C2.32 2.34 3.64 1.68 5 1 C5.33 2.32 5.66 3.64 6 5 C3.69 5.66 1.38 6.32 -1 7 C-0.67 4.69 -0.34 2.38 0 0 Z " fill="#1A1A1A" transform="translate(8,83)"/>
<path d="M0 0 C0 0.99 0 1.98 0 3 C-0.66 3 -1.32 3 -2 3 C-2 2.34 -2 1.68 -2 1 C-4.31 1.66 -6.62 2.32 -9 3 C-9 2.01 -9 1.02 -9 0 C-5.62182575 -0.84454356 -3.32534757 -1.10844919 0 0 Z " fill="#C1A55D" transform="translate(62,66)"/>
<path d="M0 0 C0.99 0 1.98 0 3 0 C3 0.66 3 1.32 3 2 C3.66 2 4.32 2 5 2 C5 2.66 5 3.32 5 4 C2.36 4 -0.28 4 -3 4 C-3 3.34 -3 2.68 -3 2 C-2.01 2 -1.02 2 0 2 C0 1.34 0 0.68 0 0 Z " fill="#030303" transform="translate(51,12)"/>
<path d="M0 0 C2.64 0 5.28 0 8 0 C8 0.66 8 1.32 8 2 C7.01 2 6.02 2 5 2 C5 2.66 5 3.32 5 4 C4.01 4 3.02 4 2 4 C2 3.34 2 2.68 2 2 C1.34 2 0.68 2 0 2 C0 1.34 0 0.68 0 0 Z " fill="#050505" transform="translate(33,7)"/>
<path d="M0 0 C1.65 0 3.3 0 5 0 C5 0.99 5 1.98 5 3 C4.34 3 3.68 3 3 3 C3 3.66 3 4.32 3 5 C2.01 5 1.02 5 0 5 C0 3.35 0 1.7 0 0 Z " fill="#222224" transform="translate(89,82)"/>
<path d="M0 0 C0.33 0 0.66 0 1 0 C1 2.31 1 4.62 1 7 C0.195625 7.28875 -0.60875 7.5775 -1.4375 7.875 C-4.1326468 8.73262568 -4.1326468 8.73262568 -5 11 C-5 10.01 -5 9.02 -5 8 C-4.34 8 -3.68 8 -3 8 C-3 7.01 -3 6.02 -3 5 C-2.01 5 -1.02 5 0 5 C0 3.35 0 1.7 0 0 Z " fill="#717378" transform="translate(97,0)"/>
<path d="M0 0 C1.65 0 3.3 0 5 0 C5 1.65 5 3.3 5 5 C4.01 5 3.02 5 2 5 C2 4.34 2 3.68 2 3 C1.34 3 0.68 3 0 3 C0 2.01 0 1.02 0 0 Z " fill="#262628" transform="translate(67,9)"/>
<path d="M0 0 C0 1.32 0 2.64 0 4 C-1.98 4 -3.96 4 -6 4 C-6.33 3.34 -6.66 2.68 -7 2 C-2.25 0 -2.25 0 0 0 Z " fill="#4A3D25" transform="translate(60,67)"/>
<path d="M0 0 C0.66 0 1.32 0 2 0 C2 0.66 2 1.32 2 2 C2.99 2 3.98 2 5 2 C5 2.66 5 3.32 5 4 C2.36 4 -0.28 4 -3 4 C-3 3.34 -3 2.68 -3 2 C-2.01 2 -1.02 2 0 2 C0 1.34 0 0.68 0 0 Z " fill="#030303" transform="translate(76,12)"/>
<path d="M0 0 C0.99 0 1.98 0 3 0 C3 0.66 3 1.32 3 2 C2.34 2 1.68 2 1 2 C1 3.65 1 5.3 1 7 C0.67 6.34 0.34 5.68 0 5 C-0.99 5 -1.98 5 -3 5 C-3 4.01 -3 3.02 -3 2 C-2.01 2 -1.02 2 0 2 C0 1.34 0 0.68 0 0 Z " fill="#97989A" transform="translate(41,7)"/>
<path d="M0 0 C0.99 0 1.98 0 3 0 C3 0.99 3 1.98 3 3 C-0.96 3 -4.92 3 -9 3 C-9 2.67 -9 2.34 -9 2 C-6.03 2 -3.06 2 0 2 C0 1.34 0 0.68 0 0 Z " fill="#999A9D" transform="translate(57,14)"/>
<path d="M0 0 C1.32 0 2.64 0 4 0 C4 0.99 4 1.98 4 3 C3.01 3 2.02 3 1 3 C1 3.66 1 4.32 1 5 C0.01 5 -0.98 5 -2 5 C-2 4.34 -2 3.68 -2 3 C-1.34 3 -0.68 3 0 3 C0 2.01 0 1.02 0 0 Z " fill="#181819" transform="translate(9,9)"/>
<path d="M0 0 C0.99 0 1.98 0 3 0 C3 0.66 3 1.32 3 2 C2.34 2 1.68 2 1 2 C1 2.99 1 3.98 1 5 C-0.32 5 -1.64 5 -3 5 C-3 4.01 -3 3.02 -3 2 C-2.01 2 -1.02 2 0 2 C0 1.34 0 0.68 0 0 Z " fill="#999B9E" transform="translate(66,7)"/>
<path d="M0 0 C3.3 0 6.6 0 10 0 C10 0.99 10 1.98 10 3 C8.68 3 7.36 3 6 3 C6 2.34 6 1.68 6 1 C4.02 1 2.04 1 0 1 C0 0.67 0 0.34 0 0 Z " fill="#646469" transform="translate(47,6)"/>
<path d="M0 0 C0.99 0 1.98 0 3 0 C3 0.99 3 1.98 3 3 C2.01 3 1.02 3 0 3 C0 3.99 0 4.98 0 6 C-0.66 6 -1.32 6 -2 6 C-2 4.68 -2 3.36 -2 2 C-1.34 2 -0.68 2 0 2 C0 1.34 0 0.68 0 0 Z " fill="#7B7E85" transform="translate(89,79)"/>
<path d="M0 0 C0.99 0 1.98 0 3 0 C2.34 1.98 1.68 3.96 1 6 C0.01 5.67 -0.98 5.34 -2 5 C-1.125 1.125 -1.125 1.125 0 0 Z " fill="#55575C" transform="translate(84,16)"/>
<path d="M0 0 C0.99 0 1.98 0 3 0 C3 0.66 3 1.32 3 2 C4.32 2.33 5.64 2.66 7 3 C6.34 3.66 5.68 4.32 5 5 C4.34 5 3.68 5 3 5 C3 4.34 3 3.68 3 3 C2.01 3 1.02 3 0 3 C0 2.01 0 1.02 0 0 Z " fill="#838486" transform="translate(26,9)"/>
</svg>
