<?xml version="1.0" encoding="UTF-8"?>
<svg version="1.1" xmlns="http://www.w3.org/2000/svg" width="158" height="161">
<path d="M0 0 C15.18 0 30.36 0 46 0 C46 1.65 46 3.3 46 5 C51.61 5.33 57.22 5.66 63 6 C63 7.98 63 9.96 63 12 C64.98 12 66.96 12 69 12 C69 13.98 69 15.96 69 18 C70.98 18 72.96 18 75 18 C75 19.65 75 21.3 75 23 C76.32 23 77.64 23 79 23 C79 24.32 79 25.64 79 27 C80.65 27 82.3 27 84 27 C84 28.98 84 30.96 84 33 C85.98 33 87.96 33 90 33 C90 34.98 90 36.96 90 39 C91.98 39 93.96 39 96 39 C96 44.28 96 49.56 96 55 C97.98 55 99.96 55 102 55 C102 71.83 102 88.66 102 106 C100.02 106 98.04 106 96 106 C96 110.95 96 115.9 96 121 C92 122 92 122 90 121 C90 123.31 90 125.62 90 128 C88.02 128 86.04 128 84 128 C84 129.98 84 131.96 84 134 C82.35 134 80.7 134 79 134 C79 135.32 79 136.64 79 138 C77.68 138 76.36 138 75 138 C75.0309375 139.2065625 75.0309375 139.2065625 75.0625 140.4375 C75 143 75 143 74 144 C72.33382885 144.04063832 70.66611905 144.042721 69 144 C69 145.65 69 147.3 69 149 C67.02 149 65.04 149 63 149 C63 150.98 63 152.96 63 155 C57.39 155 51.78 155 46 155 C46 156.98 46 158.96 46 161 C30.82 161 15.64 161 0 161 C0 159.35 0 157.7 0 156 C-8.415 155.505 -8.415 155.505 -17 155 C-17 153.35 -17 151.7 -17 150 C-18.98 149.67 -20.96 149.34 -23 149 C-23 147.35 -23 145.7 -23 144 C-24.65 144 -26.3 144 -28 144 C-28 142.02 -28 140.04 -28 138 C-29.65 138 -31.3 138 -33 138 C-33 136.68 -33 135.36 -33 134 C-34.65 134 -36.3 134 -38 134 C-38 132.02 -38 130.04 -38 128 C-39.98 128 -41.96 128 -44 128 C-44 125.69 -44 123.38 -44 121 C-45.98 121 -47.96 121 -50 121 C-50 116.05 -50 111.1 -50 106 C-51.98 106 -53.96 106 -56 106 C-56 89.17 -56 72.34 -56 55 C-54.02 55 -52.04 55 -50 55 C-50 49.72 -50 44.44 -50 39 C-48.02 39 -46.04 39 -44 39 C-44 37.02 -44 35.04 -44 33 C-42.02 33 -40.04 33 -38 33 C-38 31.02 -38 29.04 -38 27 C-36.35 27 -34.7 27 -33 27 C-33 25.68 -33 24.36 -33 23 C-31.35 23 -29.7 23 -28 23 C-28 21.35 -28 19.7 -28 18 C-26.35 18 -24.7 18 -23 18 C-23 16.02 -23 14.04 -23 12 C-21.02 11.67 -19.04 11.34 -17 11 C-17 9.35 -17 7.7 -17 6 C-8.585 5.505 -8.585 5.505 0 5 C0 3.35 0 1.7 0 0 Z " fill="#E9B503" transform="translate(56,0)"/>
<path d="M0 0 C1.98 0 3.96 0 6 0 C6 2.31 6 4.62 6 7 C4.35 7 2.7 7 1 7 C1 12.28 1 17.56 1 23 C-0.98 23 -2.96 23 -5 23 C-5 39.17 -5 55.34 -5 72 C-3.02 72 -1.04 72 1 72 C1 77.28 1 82.56 1 88 C2.98 88 4.96 88 7 88 C7 89.98 7 91.96 7 94 C8.65 94 10.3 94 12 94 C12 95.65 12 97.3 12 99 C17.28 99 22.56 99 28 99 C28 100.65 28 102.3 28 104 C33.61 104 39.22 104 45 104 C45 102.02 45 100.04 45 98 C43.02 98 41.04 98 39 98 C39 96.68 39 95.36 39 94 C37.02 94 35.04 94 33 94 C33 92.02 33 90.04 33 88 C34.98 88 36.96 88 39 88 C39 89.65 39 91.3 39 93 C42.96 93 46.92 93 51 93 C51 94.65 51 96.3 51 98 C61.56 98 72.12 98 83 98 C83 96.68 83 95.36 83 94 C87.29 94 91.58 94 96 94 C96 91.69 96 89.38 96 87 C97.65 87 99.3 87 101 87 C101 85.35 101 83.7 101 82 C102.98 82 104.96 82 107 82 C107 78.7 107 75.4 107 72 C108.98 72 110.96 72 113 72 C113 68.7 113 65.4 113 62 C114.98 62 116.96 62 119 62 C119 52.43 119 42.86 119 33 C120.65 33 122.3 33 124 33 C124 41.25 124 49.5 124 58 C125.32 58 126.64 58 128 58 C128 54.37 128 50.74 128 47 C129.65 47 131.3 47 133 47 C133 42.05 133 37.1 133 32 C134.98 32 136.96 32 139 32 C139 29.03 139 26.06 139 23 C137.35 23 135.7 23 134 23 C134 17.72 134 12.44 134 7 C132.02 7 130.04 7 128 7 C128 4.69 128 2.38 128 0 C129.98 0 131.96 0 134 0 C134 1.98 134 3.96 134 6 C135.98 6 137.96 6 140 6 C140 11.28 140 16.56 140 22 C141.98 22 143.96 22 146 22 C146 38.83 146 55.66 146 73 C144.02 73 142.04 73 140 73 C140 77.95 140 82.9 140 88 C136 89 136 89 134 88 C134 90.31 134 92.62 134 95 C132.02 95 130.04 95 128 95 C128 96.98 128 98.96 128 101 C126.35 101 124.7 101 123 101 C123 102.32 123 103.64 123 105 C121.68 105 120.36 105 119 105 C119.0309375 106.2065625 119.0309375 106.2065625 119.0625 107.4375 C119 110 119 110 118 111 C116.33382885 111.04063832 114.66611905 111.042721 113 111 C113 112.65 113 114.3 113 116 C111.02 116 109.04 116 107 116 C107 117.98 107 119.96 107 122 C101.39 122 95.78 122 90 122 C90 123.98 90 125.96 90 128 C74.82 128 59.64 128 44 128 C44 126.35 44 124.7 44 123 C38.39 122.67 32.78 122.34 27 122 C27 120.35 27 118.7 27 117 C24.03 116.505 24.03 116.505 21 116 C21 114.35 21 112.7 21 111 C19.35 111 17.7 111 16 111 C16 109.02 16 107.04 16 105 C14.35 105 12.7 105 11 105 C11 103.68 11 102.36 11 101 C9.35 101 7.7 101 6 101 C6 99.02 6 97.04 6 95 C4.02 95 2.04 95 0 95 C0 92.69 0 90.38 0 88 C-1.98 88 -3.96 88 -6 88 C-6 83.05 -6 78.1 -6 73 C-7.98 73 -9.96 73 -12 73 C-12 56.17 -12 39.34 -12 22 C-10.02 22 -8.04 22 -6 22 C-6 16.72 -6 11.44 -6 6 C-4.02 6 -2.04 6 0 6 C0 4.02 0 2.04 0 0 Z " fill="#A67802" transform="translate(12,33)"/>
<path d="M0 0 C15.18 0 30.36 0 46 0 C46 1.65 46 3.3 46 5 C51.61 5.33 57.22 5.66 63 6 C63 7.98 63 9.96 63 12 C64.98 12 66.96 12 69 12 C69 13.98 69 15.96 69 18 C70.98 18 72.96 18 75 18 C75 19.65 75 21.3 75 23 C76.32 23 77.64 23 79 23 C79 24.32 79 25.64 79 27 C80.65 27 82.3 27 84 27 C84 31.29 84 35.58 84 40 C85.98 40 87.96 40 90 40 C90 45.28 90 50.56 90 56 C91.65 56 93.3 56 95 56 C95 58.97 95 61.94 95 65 C93.02 65 91.04 65 89 65 C89 69.95 89 74.9 89 80 C87.35 80 85.7 80 84 80 C84 83.63 84 87.26 84 91 C82.68 91 81.36 91 80 91 C80 82.42 80 73.84 80 65 C78.35 65 76.7 65 75 65 C75 61.7 75 58.4 75 55 C73.02 55 71.04 55 69 55 C69 51.7 69 48.4 69 45 C67.02 45 65.04 45 63 45 C63 43.35 63 41.7 63 40 C59.04 40 55.08 40 51 40 C51 38.35 51 36.7 51 35 C47.04 35 43.08 35 39 35 C39 33.35 39 31.7 39 30 C28.77 30 18.54 30 8 30 C8 31.65 8 33.3 8 35 C3.71 35 -0.58 35 -5 35 C-5 36.65 -5 38.3 -5 40 C-6.98 40 -8.96 40 -11 40 C-11 38.02 -11 36.04 -11 34 C-9.02 34 -7.04 34 -5 34 C-5 32.68 -5 31.36 -5 30 C-3.02 30 -1.04 30 1 30 C0.67 20.1 0.34 10.2 0 0 Z " fill="#E9B602" transform="translate(56,0)"/>
<path d="M0 0 C11.22 0 22.44 0 34 0 C34 1.98 34 3.96 34 6 C35.98 6 37.96 6 40 6 C40 7.65 40 9.3 40 11 C41.65 11 43.3 11 45 11 C45 15.29 45 19.58 45 24 C41.37 24 37.74 24 34 24 C34 22.35 34 20.7 34 19 C32.02 19 30.04 19 28 19 C28 17.35 28 15.7 28 14 C20.74 14 13.48 14 6 14 C6 27.2 6 40.4 6 54 C13.26 54 20.52 54 28 54 C28 52.35 28 50.7 28 49 C29.98 49 31.96 49 34 49 C34 47.02 34 45.04 34 43 C37.96 43 41.92 43 46 43 C46 47.95 46 52.9 46 58 C44.02 58 42.04 58 40 58 C40 59.65 40 61.3 40 63 C38.02 63 36.04 63 34 63 C34 64.65 34 66.3 34 68 C22.78 68 11.56 68 0 68 C0 66.35 0 64.7 0 63 C-1.98 63 -3.96 63 -6 63 C-6 61.35 -6 59.7 -6 58 C-7.98 58 -9.96 58 -12 58 C-12 42.49 -12 26.98 -12 11 C-10.02 11 -8.04 11 -6 11 C-6 9.35 -6 7.7 -6 6 C-4.02 6 -2.04 6 0 6 C0 4.02 0 2.04 0 0 Z " fill="#684A01" transform="translate(62,46)"/>
<path d="M0 0 C1.98 0 3.96 0 6 0 C6 2.31 6 4.62 6 7 C4.35 7 2.7 7 1 7 C1 12.28 1 17.56 1 23 C-0.98 23 -2.96 23 -5 23 C-5 39.17 -5 55.34 -5 72 C-3.02 72 -1.04 72 1 72 C1 77.28 1 82.56 1 88 C2.98 88 4.96 88 7 88 C7 89.98 7 91.96 7 94 C8.65 94 10.3 94 12 94 C12 95.65 12 97.3 12 99 C13.65 99 15.3 99 17 99 C17 100.65 17 102.3 17 104 C18.65 104 20.3 104 22 104 C22 105.98 22 107.96 22 110 C23.98 110 25.96 110 28 110 C28 111.65 28 113.3 28 115 C33.61 115 39.22 115 45 115 C45 116.98 45 118.96 45 121 C39.39 121 33.78 121 28 121 C28 119.35 28 117.7 28 116 C25.69 116 23.38 116 21 116 C21 114.35 21 112.7 21 111 C19.35 111 17.7 111 16 111 C16 109.02 16 107.04 16 105 C14.35 105 12.7 105 11 105 C11 103.68 11 102.36 11 101 C9.35 101 7.7 101 6 101 C6 99.02 6 97.04 6 95 C4.02 95 2.04 95 0 95 C0 92.69 0 90.38 0 88 C-1.98 88 -3.96 88 -6 88 C-6 83.05 -6 78.1 -6 73 C-7.98 73 -9.96 73 -12 73 C-12 56.17 -12 39.34 -12 22 C-10.02 22 -8.04 22 -6 22 C-6 16.72 -6 11.44 -6 6 C-4.02 6 -2.04 6 0 6 C0 4.02 0 2.04 0 0 Z " fill="#683848" transform="translate(12,33)"/>
<path d="M0 0 C5.61 0 11.22 0 17 0 C17 5.61 17 11.22 17 17 C15.02 17 13.04 17 11 17 C11 18.32 11 19.64 11 21 C9.02 21 7.04 21 5 21 C5 22.98 5 24.96 5 27 C3.35 27 1.7 27 0 27 C0 28.65 0 30.3 0 32 C-3.96 32 -7.92 32 -12 32 C-12 30.35 -12 28.7 -12 27 C-14.97 27 -17.94 27 -21 27 C-21 24.69 -21 22.38 -21 20 C-19.35 20 -17.7 20 -16 20 C-16 18.35 -16 16.7 -16 15 C-14.68 15 -13.36 15 -12 15 C-12 13.68 -12 12.36 -12 11 C-10.02 11 -8.04 11 -6 11 C-6 9.02 -6 7.04 -6 5 C-4.02 5 -2.04 5 0 5 C0 3.35 0 1.7 0 0 Z " fill="#FBF670" transform="translate(40,13)"/>
<path d="M0 0 C15.18 0 30.36 0 46 0 C45.67 4.29 45.34 8.58 45 13 C30.48 13 15.96 13 1 13 C0.67 8.71 0.34 4.42 0 0 Z " fill="#F0EA69" transform="translate(56,0)"/>
<path d="M0 0 C1.98 0 3.96 0 6 0 C6 1.98 6 3.96 6 6 C4.35 6 2.7 6 1 6 C1 7.32 1 8.64 1 10 C-0.32 10 -1.64 10 -3 10 C-2.979375 10.804375 -2.95875 11.60875 -2.9375 12.4375 C-3 15 -3 15 -4 16 C-5.66617115 16.04063832 -7.33388095 16.042721 -9 16 C-9 17.65 -9 19.3 -9 21 C-10.98 21 -12.96 21 -15 21 C-15 22.98 -15 24.96 -15 27 C-20.61 27 -26.22 27 -32 27 C-32 28.98 -32 30.96 -32 33 C-47.18 33 -62.36 33 -78 33 C-78 28 -78 28 -77 27 C-75.61839885 26.9072167 -74.23211962 26.88252957 -72.84741211 26.88647461 C-71.52615578 26.88658791 -71.52615578 26.88658791 -70.1782074 26.88670349 C-69.22092239 26.89186478 -68.26363739 26.89702606 -67.27734375 26.90234375 C-65.81452721 26.90446617 -65.81452721 26.90446617 -64.32215881 26.90663147 C-61.19390857 26.91224867 -58.06572877 26.92480407 -54.9375 26.9375 C-52.82226666 26.94251278 -50.70703219 26.94707607 -48.59179688 26.95117188 C-43.39450704 26.96222369 -38.19725855 26.97897854 -33 27 C-33 25.02 -33 23.04 -33 21 C-27.39 21 -21.78 21 -16 21 C-16 19.02 -16 17.04 -16 15 C-14.02 15 -12.04 15 -10 15 C-10 13.02 -10 11.04 -10 9 C-8.02 9 -6.04 9 -4 9 C-4 7.68 -4 6.36 -4 5 C-2.68 5 -1.36 5 0 5 C0 3.35 0 1.7 0 0 Z " fill="#530A52" transform="translate(134,128)"/>
<path d="M0 0 C10.56 0 21.12 0 32 0 C32 0.99 32 1.98 32 3 C33.98 3 35.96 3 38 3 C38 3.99 38 4.98 38 6 C40.31 6 42.62 6 45 6 C45 7.32 45 8.64 45 10 C46.65 10 48.3 10 50 10 C50 11.98 50 13.96 50 16 C48.02 16 46.04 16 44 16 C44 14.35 44 12.7 44 11 C40.04 11 36.08 11 32 11 C32 9.35 32 7.7 32 6 C21.77 6 11.54 6 1 6 C1 7.65 1 9.3 1 11 C-3.29 11 -7.58 11 -12 11 C-12 12.65 -12 14.3 -12 16 C-13.98 16 -15.96 16 -18 16 C-18 14.02 -18 12.04 -18 10 C-16.02 10 -14.04 10 -12 10 C-12 8.68 -12 7.36 -12 6 C-10.02 6 -8.04 6 -6 6 C-6 5.01 -6 4.02 -6 3 C-4.02 3 -2.04 3 0 3 C0 2.01 0 1.02 0 0 Z " fill="#6D5002" transform="translate(63,24)"/>
<path d="M0 0 C1.98 0 3.96 0 6 0 C6 16.83 6 33.66 6 51 C4.02 51 2.04 51 0 51 C0 55.95 0 60.9 0 66 C-4 67 -4 67 -6 66 C-6 60.72 -6 55.44 -6 50 C-4.02 50 -2.04 50 0 50 C0 33.5 0 17 0 0 Z " fill="#010001" transform="translate(152,55)"/>
<path d="M0 0 C1.98 0 3.96 0 6 0 C6 5.28 6 10.56 6 16 C7.98 16 9.96 16 12 16 C12 17.98 12 19.96 12 22 C13.65 22 15.3 22 17 22 C17 23.65 17 25.3 17 27 C18.65 27 20.3 27 22 27 C22 28.65 22 30.3 22 32 C23.65 32 25.3 32 27 32 C27 33.98 27 35.96 27 38 C28.98 38 30.96 38 33 38 C33 39.65 33 41.3 33 43 C38.61 43 44.22 43 50 43 C50 44.98 50 46.96 50 49 C44.39 49 38.78 49 33 49 C33 47.35 33 45.7 33 44 C30.69 44 28.38 44 26 44 C26 42.35 26 40.7 26 39 C24.35 39 22.7 39 21 39 C21 37.02 21 35.04 21 33 C19.35 33 17.7 33 16 33 C16 31.68 16 30.36 16 29 C14.35 29 12.7 29 11 29 C11 27.02 11 25.04 11 23 C9.02 23 7.04 23 5 23 C5 20.69 5 18.38 5 16 C3.35 16 1.7 16 0 16 C0 10.72 0 5.44 0 0 Z " fill="#220E15" transform="translate(7,105)"/>
<path d="M0 0 C1.98 0 3.96 0 6 0 C6 1.65 6 3.3 6 5 C9.96 5 13.92 5 18 5 C18 6.65 18 8.3 18 10 C28.56 10 39.12 10 50 10 C50 8.68 50 7.36 50 6 C54.29 6 58.58 6 63 6 C63 7.32 63 8.64 63 10 C60.69 10 58.38 10 56 10 C56 10.99 56 11.98 56 13 C54.02 13 52.04 13 50 13 C50 13.99 50 14.98 50 16 C39.44 16 28.88 16 18 16 C18 15.34 18 14.68 18 14 C16.02 14 14.04 14 12 14 C12 12.68 12 11.36 12 10 C10.02 10 8.04 10 6 10 C6 8.68 6 7.36 6 6 C4.02 6 2.04 6 0 6 C0 4.02 0 2.04 0 0 Z " fill="#664A02" transform="translate(45,121)"/>
<path d="M0 0 C1.98 0 3.96 0 6 0 C6 1.98 6 3.96 6 6 C7.98 6 9.96 6 12 6 C12 27.78 12 49.56 12 72 C10.02 72 8.04 72 6 72 C6 79.59 6 87.18 6 95 C4.02 95 2.04 95 0 95 C0 92.69 0 90.38 0 88 C1.65 88 3.3 88 5 88 C5 79.75 5 71.5 5 63 C7.475 62.505 7.475 62.505 10 62 C10 52.43 10 42.86 10 33 C8.68 33 7.36 33 6 33 C6 37.95 6 42.9 6 48 C4.02 48 2.04 48 0 48 C0 47.67 0 47.34 0 47 C1.65 47 3.3 47 5 47 C5 42.05 5 37.1 5 32 C6.98 32 8.96 32 11 32 C11 29.03 11 26.06 11 23 C9.35 23 7.7 23 6 23 C6 17.72 6 12.44 6 7 C4.02 7 2.04 7 0 7 C0 4.69 0 2.38 0 0 Z " fill="#A67D06" transform="translate(140,33)"/>
<path d="M0 0 C2.31 0 4.62 0 7 0 C7 3.63 7 7.26 7 11 C5.68 11 4.36 11 3 11 C3 20.57 3 30.14 3 40 C4.32 40 5.64 40 7 40 C7 43.3 7 46.6 7 50 C4.69 50 2.38 50 0 50 C0 46.7 0 43.4 0 40 C-0.99 40 -1.98 40 -3 40 C-3 30.1 -3 20.2 -3 10 C-2.01 10 -1.02 10 0 10 C0 6.7 0 3.4 0 0 Z " fill="#7A5A04" transform="translate(27,55)"/>
<path d="M0 0 C15.18 0 30.36 0 46 0 C46 1.65 46 3.3 46 5 C44.45498549 6.54501451 43.0133978 6.12719131 40.86328125 6.12939453 C39.54686646 6.13412277 39.54686646 6.13412277 38.20385742 6.13894653 C37.24970947 6.1369223 36.29556152 6.13489807 35.3125 6.1328125 C33.85324097 6.13424759 33.85324097 6.13424759 32.36450195 6.13571167 C30.303222 6.13639358 28.24193992 6.13453853 26.18066406 6.13037109 C23.01362312 6.125023 19.846724 6.13031572 16.6796875 6.13671875 C14.68229135 6.13605797 12.68489529 6.13477681 10.6875 6.1328125 C9.73335205 6.13483673 8.7792041 6.13686096 7.79614258 6.13894653 C6.91853271 6.13579437 6.04092285 6.13264221 5.13671875 6.12939453 C4.36030029 6.12859894 3.58388184 6.12780334 2.78393555 6.12698364 C1 6 1 6 0 5 C0 3.35 0 1.7 0 0 Z " fill="#100110" transform="translate(56,0)"/>
<path d="M0 0 C5.94 0 11.88 0 18 0 C18 1.98 18 3.96 18 6 C19.98 6 21.96 6 24 6 C24 7.98 24 9.96 24 12 C25.98 12 27.96 12 30 12 C30 13.65 30 15.3 30 17 C31.32 17 32.64 17 34 17 C34 18.32 34 19.64 34 21 C35.65 21 37.3 21 39 21 C39 22.98 39 24.96 39 27 C37.02 27 35.04 27 33 27 C33 25.35 33 23.7 33 22 C31.68 22 30.36 22 29 22 C29 20.68 29 19.36 29 18 C27.02 18 25.04 18 23 18 C23 16.02 23 14.04 23 12 C21.02 12 19.04 12 17 12 C17 10.35 17 8.7 17 7 C11.39 7 5.78 7 0 7 C0 4.69 0 2.38 0 0 Z " fill="#381625" transform="translate(101,6)"/>
<path d="M0 0 C5.94 0 11.88 0 18 0 C18 2.31 18 4.62 18 7 C12.39 7 6.78 7 1 7 C1 8.65 1 10.3 1 12 C-0.98 12 -2.96 12 -5 12 C-5 13.98 -5 15.96 -5 18 C-6.98 18 -8.96 18 -11 18 C-11 19.32 -11 20.64 -11 22 C-12.32 22 -13.64 22 -15 22 C-15 23.65 -15 25.3 -15 27 C-16.98 27 -18.96 27 -21 27 C-21 25.02 -21 23.04 -21 21 C-19.35 21 -17.7 21 -16 21 C-16 19.68 -16 18.36 -16 17 C-14.35 17 -12.7 17 -11 17 C-11 15.35 -11 13.7 -11 12 C-9.35 12 -7.7 12 -6 12 C-6 10.02 -6 8.04 -6 6 C-4.02 5.67 -2.04 5.34 0 5 C0 3.35 0 1.7 0 0 Z " fill="#432530" transform="translate(39,6)"/>
<path d="M0 0 C5.61 0 11.22 0 17 0 C17 3.96 17 7.92 17 12 C15.02 12 13.04 12 11 12 C11 13.65 11 15.3 11 17 C9.35 17 7.7 17 6 17 C6 16.34 6 15.68 6 15 C4.02 15 2.04 15 0 15 C0 10.05 0 5.1 0 0 Z " fill="#FCF771" transform="translate(45,40)"/>
<path d="M0 0 C1.65 0 3.3 0 5 0 C5 16.17 5 32.34 5 49 C3.35 49 1.7 49 0 49 C0 32.83 0 16.66 0 0 Z " fill="#000000" transform="translate(1,56)"/>
<path d="M0 0 C14.52 0 29.04 0 44 0 C44 1.65 44 3.3 44 5 C29.48 5 14.96 5 0 5 C0 3.35 0 1.7 0 0 Z " fill="#000000" transform="translate(57,155)"/>
<path d="M0 0 C1.98 0 3.96 0 6 0 C6 11.55 6 23.1 6 35 C4.02 35 2.04 35 0 35 C0 23.45 0 11.9 0 0 Z " fill="#FDF56E" transform="translate(7,56)"/>
<path d="M0 0 C3.3 0 6.6 0 10 0 C10 1.65 10 3.3 10 5 C8.35 5 6.7 5 5 5 C5 6.98 5 8.96 5 11 C3.02 11 1.04 11 -1 11 C-1 12.65 -1 14.3 -1 16 C-6.61 16 -12.22 16 -18 16 C-18 14.35 -18 12.7 -18 11 C-14.04 11 -10.08 11 -6 11 C-6 9.02 -6 7.04 -6 5 C-4.02 5 -2.04 5 0 5 C0 3.35 0 1.7 0 0 Z " fill="#EDBB04" transform="translate(119,132)"/>
<path d="M0 0 C1.65 0 3.3 0 5 0 C5 5.28 5 10.56 5 16 C3.35 16 1.7 16 0 16 C0 18.31 0 20.62 0 23 C-1.98 23 -3.96 23 -6 23 C-6 24.32 -6 25.64 -6 27 C-7.32 27 -8.64 27 -10 27 C-10 25.35 -10 23.7 -10 22 C-8.68 22 -7.36 22 -6 22 C-6 18.04 -6 14.08 -6 10 C-4.02 10 -2.04 10 0 10 C0 6.7 0 3.4 0 0 Z " fill="#E9B805" transform="translate(140,105)"/>
<path d="M0 0 C0.33 0 0.66 0 1 0 C1 16.17 1 32.34 1 49 C-0.98 49 -2.96 49 -5 49 C-5 53.95 -5 58.9 -5 64 C-9 65 -9 65 -11 64 C-11 58.72 -11 53.44 -11 48 C-7.37 48 -3.74 48 0 48 C0 32.16 0 16.32 0 0 Z " fill="#380838" transform="translate(157,57)"/>
<path d="M0 0 C1.65 0 3.3 0 5 0 C5 9.57 5 19.14 5 29 C3.35 29 1.7 29 0 29 C0 19.43 0 9.86 0 0 Z " fill="#624601" transform="translate(131,66)"/>
<path d="M0 0 C1.98 0 3.96 0 6 0 C6 1.98 6 3.96 6 6 C7.98 6 9.96 6 12 6 C12 11.28 12 16.56 12 22 C10.02 22 8.04 22 6 22 C6 17.05 6 12.1 6 7 C4.02 7 2.04 7 0 7 C0 4.69 0 2.38 0 0 Z " fill="#000000" transform="translate(140,33)"/>
<path d="M0 0 C1.65 0 3.3 0 5 0 C5 2.97 5 5.94 5 9 C3.68 9 2.36 9 1 9 C1 18.9 1 28.8 1 39 C2.65 39 4.3 39 6 39 C6 42.3 6 45.6 6 49 C4.02 49 2.04 49 0 49 C0 32.83 0 16.66 0 0 Z " fill="#503800" transform="translate(28,56)"/>
<path d="M0 0 C7.26 0 14.52 0 22 0 C22 1.98 22 3.96 22 6 C14.74 6 7.48 6 0 6 C0 4.02 0 2.04 0 0 Z " fill="#E0B407" transform="translate(79,149)"/>
<path d="M0 0 C5.94 0 11.88 0 18 0 C18 1.98 18 3.96 18 6 C15.18743719 6.02684312 12.37512759 6.04676188 9.5625 6.0625 C8.76005859 6.07087891 7.95761719 6.07925781 7.13085938 6.08789062 C5.08704779 6.0965143 3.04316098 6.0522815 1 6 C0.67 5.67 0.34 5.34 0 5 C0 3.35 0 1.7 0 0 Z " fill="#130313" transform="translate(39,6)"/>
<path d="M0 0 C1.98 0 3.96 0 6 0 C6 1.98 6 3.96 6 6 C4.35 6 2.7 6 1 6 C1 7.32 1 8.64 1 10 C-0.32 10 -1.64 10 -3 10 C-3 11.65 -3 13.3 -3 15 C-5.31 15 -7.62 15 -10 15 C-10 13.02 -10 11.04 -10 9 C-8.02 9 -6.04 9 -4 9 C-4 7.68 -4 6.36 -4 5 C-2.68 5 -1.36 5 0 5 C0 3.35 0 1.7 0 0 Z " fill="#3C172A" transform="translate(134,128)"/>
<path d="M0 0 C9.9 0 19.8 0 30 0 C30 0.33 30 0.66 30 1 C29.16227051 1.01981934 28.32454102 1.03963867 27.46142578 1.06005859 C24.35634166 1.13810612 21.25165461 1.22479635 18.14697266 1.31738281 C16.14113029 1.37454036 14.13501082 1.42168596 12.12890625 1.46875 C10.24365234 1.52675781 10.24365234 1.52675781 8.3203125 1.5859375 C7.15773926 1.6173584 5.99516602 1.6487793 4.79736328 1.68115234 C1.86343518 1.72157869 1.86343518 1.72157869 0 4 C-0.33 5.65 -0.66 7.3 -1 9 C-4.96 9 -8.92 9 -13 9 C-13 7.68 -13 6.36 -13 5 C-11.02 5 -9.04 5 -7 5 C-7 4.01 -7 3.02 -7 2 C-4.69 2 -2.38 2 0 2 C0 1.34 0 0.68 0 0 Z " fill="#593F02" transform="translate(64,25)"/>
<path d="M0 0 C1.65 0 3.3 0 5 0 C5 1.98 5 3.96 5 6 C3.35 6 1.7 6 0 6 C0 8.97 0 11.94 0 15 C-1.98 15 -3.96 15 -6 15 C-6 11.7 -6 8.4 -6 5 C-4.02 5 -2.04 5 0 5 C0 3.35 0 1.7 0 0 Z " fill="#6F5105" transform="translate(40,40)"/>
<path d="M0 0 C5.61 0 11.22 0 17 0 C17 1.65 17 3.3 17 5 C11.39 5 5.78 5 0 5 C0 3.35 0 1.7 0 0 Z " fill="#010100" transform="translate(101,149)"/>
<path d="M0 0 C5.61 0 11.22 0 17 0 C17 1.65 17 3.3 17 5 C11.39 5 5.78 5 0 5 C0 3.35 0 1.7 0 0 Z " fill="#000000" transform="translate(40,149)"/>
<path d="M0 0 C10.56 0 21.12 0 32 0 C32 0.33 32 0.66 32 1 C21.77 1 11.54 1 1 1 C1 2.65 1 4.3 1 6 C-3.29 6 -7.58 6 -12 6 C-12 7.65 -12 9.3 -12 11 C-13.98 11 -15.96 11 -18 11 C-18 9.02 -18 7.04 -18 5 C-12.06 5 -6.12 5 0 5 C0 3.35 0 1.7 0 0 Z " fill="#7F5E06" transform="translate(63,29)"/>
<path d="M0 0 C5.61 0 11.22 0 17 0 C17 1.65 17 3.3 17 5 C11.39 5 5.78 5 0 5 C0 3.35 0 1.7 0 0 Z " fill="#010201" transform="translate(101,7)"/>
<path d="M0 0 C5.94 0 11.88 0 18 0 C18 1.98 18 3.96 18 6 C19.98 6 21.96 6 24 6 C24 7.98 24 9.96 24 12 C21.69 12 19.38 12 17 12 C17 10.35 17 8.7 17 7 C11.39 7 5.78 7 0 7 C0 6.67 0 6.34 0 6 C5.61 6 11.22 6 17 6 C17 4.35 17 2.7 17 1 C11.39 1 5.78 1 0 1 C0 0.67 0 0.34 0 0 Z " fill="#652743" transform="translate(101,6)"/>
<path d="M0 0 C1.65 0 3.3 0 5 0 C5 5.28 5 10.56 5 16 C3.35 16 1.7 16 0 16 C0 10.72 0 5.44 0 0 Z " fill="#020101" transform="translate(7,105)"/>
<path d="M0 0 C1.65 0 3.3 0 5 0 C5 4.95 5 9.9 5 15 C3.35 15 1.7 15 0 15 C0 10.05 0 5.1 0 0 Z " fill="#020100" transform="translate(146,105)"/>
<path d="M0 0 C1.65 0 3.3 0 5 0 C5 4.95 5 9.9 5 15 C3.35 15 1.7 15 0 15 C0 10.05 0 5.1 0 0 Z " fill="#FFFB79" transform="translate(13,40)"/>
<path d="M0 0 C1.65 0 3.3 0 5 0 C5 4.95 5 9.9 5 15 C3.35 15 1.7 15 0 15 C0 10.05 0 5.1 0 0 Z " fill="#000000" transform="translate(7,40)"/>
<path d="M0 0 C0.33 0 0.66 0 1 0 C1 5.28 1 10.56 1 16 C2.98 16 4.96 16 7 16 C7 17.98 7 19.96 7 22 C8.65 22 10.3 22 12 22 C12 22.33 12 22.66 12 23 C8.04 23 4.08 23 0 23 C0 15.41 0 7.82 0 0 Z " fill="#5F3524" transform="translate(12,105)"/>
<path d="M0 0 C3.96 0 7.92 0 12 0 C12 1.65 12 3.3 12 5 C17.61 5 23.22 5 29 5 C29 5.33 29 5.66 29 6 C21.08 6 13.16 6 5 6 C5 4.35 5 2.7 5 1 C3.35 1 1.7 1 0 1 C0 0.67 0 0.34 0 0 Z " fill="#78294E" transform="translate(28,143)"/>
<path d="M0 0 C1.98 0 3.96 0 6 0 C6 1.98 6 3.96 6 6 C7.98 6 9.96 6 12 6 C12 11.28 12 16.56 12 22 C11.67 22 11.34 22 11 22 C11 17.05 11 12.1 11 7 C7.37 7 3.74 7 0 7 C0 4.69 0 2.38 0 0 Z " fill="#2C0929" transform="translate(140,33)"/>
<path d="M0 0 C1.98 0 3.96 0 6 0 C6 3.3 6 6.6 6 10 C4.02 10 2.04 10 0 10 C0 6.7 0 3.4 0 0 Z " fill="#674A02" transform="translate(119,105)"/>
<path d="M0 0 C1.98 0 3.96 0 6 0 C6 3.3 6 6.6 6 10 C4.02 10 2.04 10 0 10 C0 6.7 0 3.4 0 0 Z " fill="#684B03" transform="translate(34,105)"/>
<path d="M0 0 C1.98 0 3.96 0 6 0 C6 3.3 6 6.6 6 10 C4.02 10 2.04 10 0 10 C0 6.7 0 3.4 0 0 Z " fill="#644802" transform="translate(125,95)"/>
<path d="M0 0 C1.98 0 3.96 0 6 0 C6 3.3 6 6.6 6 10 C4.02 10 2.04 10 0 10 C0 6.7 0 3.4 0 0 Z " fill="#654802" transform="translate(125,55)"/>
<path d="M0 0 C1.98 0 3.96 0 6 0 C6 3.3 6 6.6 6 10 C4.02 10 2.04 10 0 10 C0 6.7 0 3.4 0 0 Z " fill="#6C4E04" transform="translate(119,45)"/>
<path d="M0 0 C5.94 0 11.88 0 18 0 C18 0.99 18 1.98 18 3 C12.06 3 6.12 3 0 3 C0 2.01 0 1.02 0 0 Z " fill="#EBB703" transform="translate(81,150)"/>
<path d="M0 0 C0.33 1.32 0.66 2.64 1 4 C2.65 4 4.3 4 6 4 C6 5.98 6 7.96 6 10 C4.02 10 2.04 10 0 10 C0 8.35 0 6.7 0 5 C-3.96 5 -7.92 5 -12 5 C-12 4.67 -12 4.34 -12 4 C-8.04 4 -4.08 4 0 4 C0 2.68 0 1.36 0 0 Z " fill="#997308" transform="translate(107,30)"/>
<path d="M0 0 C1.65 0 3.3 0 5 0 C5 1.65 5 3.3 5 5 C6.32 5 7.64 5 9 5 C9 6.65 9 8.3 9 10 C7.68 10.33 6.36 10.66 5 11 C5 9.35 5 7.7 5 6 C3.35 6 1.7 6 0 6 C0 4.02 0 2.04 0 0 Z " fill="#B28201" transform="translate(19,121)"/>
<path d="M0 0 C1.65 0 3.3 0 5 0 C5 3.3 5 6.6 5 10 C3.35 10 1.7 10 0 10 C0 6.7 0 3.4 0 0 Z " fill="#654901" transform="translate(29,95)"/>
<path d="M0 0 C1.98 0 3.96 0 6 0 C6 1.65 6 3.3 6 5 C9.96 5 13.92 5 18 5 C18 5.33 18 5.66 18 6 C12.06 6 6.12 6 0 6 C0 4.02 0 2.04 0 0 Z " fill="#967109" transform="translate(45,121)"/>
<path d="M0 0 C1.98 0 3.96 0 6 0 C6 2.31 6 4.62 6 7 C4.02 7 2.04 7 0 7 C0 4.69 0 2.38 0 0 Z " fill="#160417" transform="translate(140,121)"/>
<path d="M0 0 C0 2.97 0 5.94 0 9 C-1.65 9 -3.3 9 -5 9 C-5 6.36 -5 3.72 -5 1 C-1.125 0 -1.125 0 0 0 Z " fill="#F9C706" transform="translate(151,96)"/>
<path d="M0 0 C1.98 0 3.96 0 6 0 C6 1.98 6 3.96 6 6 C4.02 6 2.04 6 0 6 C0 4.02 0 2.04 0 0 Z " fill="#694C06" transform="translate(45,34)"/>
<path d="M0 0 C1.65 0 3.3 0 5 0 C5 2.31 5 4.62 5 7 C3.35 7 1.7 7 0 7 C0 4.69 0 2.38 0 0 Z " fill="#0A0806" transform="translate(13,33)"/>
<path d="M0 0 C1.98 0 3.96 0 6 0 C6 1.65 6 3.3 6 5 C4.02 5 2.04 5 0 5 C0 3.35 0 1.7 0 0 Z " fill="#0B0903" transform="translate(118,143)"/>
<path d="M0 0 C1.98 0 3.96 0 6 0 C6 1.65 6 3.3 6 5 C4.02 5 2.04 5 0 5 C0 3.35 0 1.7 0 0 Z " fill="#020101" transform="translate(34,143)"/>
<path d="M0 0 C1.98 0 3.96 0 6 0 C6 1.65 6 3.3 6 5 C4.02 5 2.04 5 0 5 C0 3.35 0 1.7 0 0 Z " fill="#050302" transform="translate(28,138)"/>
<path d="M0 0 C1.65 0 3.3 0 5 0 C5 1.98 5 3.96 5 6 C3.35 6 1.7 6 0 6 C0 4.02 0 2.04 0 0 Z " fill="#604501" transform="translate(108,121)"/>
<path d="M0 0 C1.65 0 3.3 0 5 0 C5 1.98 5 3.96 5 6 C3.35 6 1.7 6 0 6 C0 4.02 0 2.04 0 0 Z " fill="#000001" transform="translate(13,121)"/>
<path d="M0 0 C1.65 0 3.3 0 5 0 C5 1.98 5 3.96 5 6 C3.35 6 1.7 6 0 6 C0 4.02 0 2.04 0 0 Z " fill="#664902" transform="translate(114,115)"/>
<path d="M0 0 C1.65 0 3.3 0 5 0 C5 1.98 5 3.96 5 6 C3.35 6 1.7 6 0 6 C0 4.02 0 2.04 0 0 Z " fill="#A97C03" transform="translate(13,115)"/>
<path d="M0 0 C1.98 0 3.96 0 6 0 C6 1.65 6 3.3 6 5 C4.02 5 2.04 5 0 5 C0 3.35 0 1.7 0 0 Z " fill="#634703" transform="translate(113,40)"/>
<path d="M0 0 C1.98 0 3.96 0 6 0 C6 1.65 6 3.3 6 5 C4.02 5 2.04 5 0 5 C0 3.35 0 1.7 0 0 Z " fill="#E9B405" transform="translate(45,40)"/>
<path d="M0 0 C1.98 0 3.96 0 6 0 C6 1.65 6 3.3 6 5 C4.02 5 2.04 5 0 5 C0 3.35 0 1.7 0 0 Z " fill="#FEDE28" transform="translate(51,13)"/>
<path d="M0 0 C1.98 0 3.96 0 6 0 C6 1.65 6 3.3 6 5 C4.02 5 2.04 5 0 5 C0 3.35 0 1.7 0 0 Z " fill="#080702" transform="translate(118,13)"/>
<path d="M0 0 C1.98 0 3.96 0 6 0 C6 1.65 6 3.3 6 5 C4.02 5 2.04 5 0 5 C0 3.35 0 1.7 0 0 Z " fill="#020302" transform="translate(34,13)"/>
<path d="M0 0 C1.32 0 2.64 0 4 0 C4 2.31 4 4.62 4 7 C2.68 7 1.36 7 0 7 C0 4.69 0 2.38 0 0 Z " fill="#644701" transform="translate(119,47)"/>
<path d="M0 0 C1.65 0 3.3 0 5 0 C5 1.65 5 3.3 5 5 C3.35 5 1.7 5 0 5 C0 3.35 0 1.7 0 0 Z " fill="#000000" transform="translate(125,138)"/>
<path d="M0 0 C1.65 0 3.3 0 5 0 C5 1.65 5 3.3 5 5 C3.35 5 1.7 5 0 5 C0 3.35 0 1.7 0 0 Z " fill="#040006" transform="translate(135,128)"/>
<path d="M0 0 C1.65 0 3.3 0 5 0 C5 1.65 5 3.3 5 5 C3.35 5 1.7 5 0 5 C0 3.35 0 1.7 0 0 Z " fill="#5B4001" transform="translate(40,115)"/>
<path d="M0 0 C1.65 0 3.3 0 5 0 C5 1.65 5 3.3 5 5 C3.35 5 1.7 5 0 5 C0 3.35 0 1.7 0 0 Z " fill="#583C00" transform="translate(40,40)"/>
<path d="M0 0 C1.65 0 3.3 0 5 0 C5 1.65 5 3.3 5 5 C3.35 5 1.7 5 0 5 C0 3.35 0 1.7 0 0 Z " fill="#5A4001" transform="translate(108,34)"/>
<path d="M0 0 C1.65 0 3.3 0 5 0 C5 1.65 5 3.3 5 5 C3.35 5 1.7 5 0 5 C0 3.35 0 1.7 0 0 Z " fill="#040006" transform="translate(135,28)"/>
<path d="M0 0 C1.65 0 3.3 0 5 0 C5 1.65 5 3.3 5 5 C3.35 5 1.7 5 0 5 C0 3.35 0 1.7 0 0 Z " fill="#020002" transform="translate(125,18)"/>
<path d="M0 0 C0.99 0 1.98 0 3 0 C3 2.31 3 4.62 3 7 C2.01 7.33 1.02 7.66 0 8 C0 5.36 0 2.72 0 0 Z " fill="#664900" transform="translate(29,57)"/>
<path d="M0 0 C1.32 0 2.64 0 4 0 C4.33 1.65 4.66 3.3 5 5 C3.35 5 1.7 5 0 5 C0 3.35 0 1.7 0 0 Z " fill="#000000" transform="translate(19,28)"/>
<path d="M0 0 C1.32 0 2.64 0 4 0 C4 1.65 4 3.3 4 5 C2.68 5 1.36 5 0 5 C0 3.35 0 1.7 0 0 Z " fill="#F6C507" transform="translate(130,127)"/>
<path d="M0 0 C1.32 0 2.64 0 4 0 C4 1.65 4 3.3 4 5 C2.68 5 1.36 5 0 5 C0 3.35 0 1.7 0 0 Z " fill="#553B00" transform="translate(46,121)"/>
<path d="M0 0 C1.32 0 2.64 0 4 0 C4 1.65 4 3.3 4 5 C2.68 5 1.36 5 0 5 C0 3.35 0 1.7 0 0 Z " fill="#FDDA24" transform="translate(24,40)"/>
<path d="M0 0 C0.99 0 1.98 0 3 0 C3 1.98 3 3.96 3 6 C2.01 6 1.02 6 0 6 C0 4.02 0 2.04 0 0 Z " fill="#EBB604" transform="translate(147,97)"/>
<path d="M0 0 C1.32 0.33 2.64 0.66 4 1 C4 2.32 4 3.64 4 5 C2.68 5 1.36 5 0 5 C0 3.35 0 1.7 0 0 Z " fill="#010001" transform="translate(24,23)"/>
<path d="M0 0 C1.32 0 2.64 0 4 0 C4 1.32 4 2.64 4 4 C2.68 4.33 1.36 4.66 0 5 C0 3.35 0 1.7 0 0 Z " fill="#A17503" transform="translate(24,127)"/>
</svg>
